<svg width="68" height="40" viewBox="0 0 68 40" fill="none" xmlns="http://www.w3.org/2000/svg">
<g clip-path="url(#clip0_838_856)">
<path fill-rule="evenodd" clip-rule="evenodd" d="M28.674 40C25.5844 40 22.2896 38.076 22.2896 34.3932C22.2896 30.5451 25.5844 28.7274 28.674 28.7274C31.7395 28.7274 35.0343 30.7576 35.0343 34.4168C35.0343 38.135 31.7395 40 28.674 40ZM28.674 30.6041C26.1637 30.6041 24.4982 32.2803 24.4982 34.4286C24.4982 36.4824 26.1637 38.1232 28.674 38.1232C31.1602 38.1232 32.8257 36.5297 32.8257 34.4286C32.8257 32.2921 31.1602 30.6041 28.674 30.6041Z" fill="#050505"/>
<path d="M6.79305 39.8584C8.15686 39.8584 9.38787 39.5043 10.2568 39.1029C11.1499 38.7016 11.8137 38.2649 12.1154 37.9816V33.7439H6.59995L6.57582 35.3847H10.0879V36.9074C9.29128 37.533 7.99997 37.9579 6.78099 37.9579C4.78963 37.9579 3.14826 36.5296 3.14826 34.287C3.14826 32.056 4.68101 30.7222 6.78099 30.7222C7.73443 30.7222 8.56715 30.8638 9.14647 31.0881C9.62927 31.277 10.7878 31.8199 11.1378 32.0678L12.1275 30.6513C11.8499 30.3681 10.6068 29.5418 9.55683 29.2231C8.51893 28.9162 7.36029 28.8572 6.80513 28.8572C4.08963 28.8572 1 30.6513 1 34.3224C1 37.9343 4.04135 39.8584 6.79305 39.8584Z" fill="#050505"/>
<path d="M13.5396 29.0342L13.5637 39.7049H22.7119V37.8517H15.893V29.0342H13.5396Z" fill="#050505"/>
<path fill-rule="evenodd" clip-rule="evenodd" d="M36.2048 39.7049H42.1307C44.1583 39.7049 45.9927 38.5836 45.9927 36.7776C45.9927 35.6208 45.0514 34.4876 44.1341 34.3224C44.1462 34.2988 44.1341 34.287 44.1341 34.287C45.0393 33.9329 45.8721 33.1892 45.8721 31.9734C45.8721 30.3563 44.3755 29.0342 41.9497 29.0342H36.229L36.2048 39.7049ZM38.4859 30.7222H41.7686C43.0721 30.6986 43.7238 31.3832 43.7238 32.1268C43.7238 32.9413 42.879 33.5905 41.5755 33.5905L38.4859 33.5787V30.7222ZM38.4859 35.1722H41.7083C43.0117 35.1722 43.6635 35.8569 43.6635 36.6596C43.6635 37.4386 42.879 38.0288 41.5755 38.0288H38.4859V35.1722Z" fill="#050505"/>
<path fill-rule="evenodd" clip-rule="evenodd" d="M55.2616 39.7049L54.1995 37.3205L49.1667 37.3323L48.0926 39.7049H45.8599L50.8685 28.9988H52.7874L57.5788 39.7049H55.2616ZM51.7253 31.6075H51.7133L49.915 35.5972H53.4874L51.7253 31.6075Z" fill="#050505"/>
<path d="M58.4961 29.0342L58.5202 39.7049H67.6683V37.8517H60.8495V29.0342H58.4961Z" fill="#050505"/>
<path d="M45.3583 15.531C45.3583 14.0674 44.872 12.7925 43.8749 11.8719C42.8535 10.9512 41.4187 10.2901 39.5704 9.84159C38.6705 9.62913 37.5762 9.41667 36.3116 9.20421C35.047 8.99175 34.0742 8.82644 33.4176 8.6848C32.2017 8.42513 31.3991 8.04742 31.083 7.74054C30.7424 7.40998 30.5722 7.03227 30.5722 6.39486V6.32405C30.5966 5.68664 30.8884 5.21449 31.8125 4.71873C32.6394 4.27018 33.7824 4.0341 35.2415 4.0341H35.6063C37.1141 4.08131 38.5489 4.31739 39.9595 4.74233C41.4187 5.21448 42.1725 5.71025 43.0724 6.37126L44.8719 3.06619C44.8719 3.06619 41.9293 1.22479 40.4945 0.917888C39.0353 0.61099 37.4546 0.422124 35.7279 0.374908H35.2172C32.7367 0.374908 30.5966 0.870675 28.8213 1.8858C26.9487 2.94815 25.8543 4.55347 25.8057 6.44208V6.63096C25.8057 8.14185 26.365 9.48749 27.4837 10.5026C28.6267 11.5649 30.329 12.2496 32.5178 12.6981C33.5878 12.9106 34.5849 13.0758 35.5333 13.2175C36.4575 13.3592 37.3087 13.5244 38.0869 13.7133C39.084 13.9493 39.765 14.2798 40.154 14.5868C40.4458 14.8464 40.6161 15.2005 40.6404 15.8851V16.0032C40.5918 16.735 40.2756 17.2544 39.3029 17.7738C38.4273 18.2223 37.1384 18.482 35.4847 18.482H35.0227C33.7094 18.4584 32.2746 18.1987 30.7425 17.7266C29.2103 17.2544 27.2648 15.6963 27.2648 15.6963L25.0518 19.1194C26.3164 20.1582 28.6024 21.2677 30.0858 21.5982C31.5207 21.9051 33.1258 22.094 34.8767 22.1412H35.5091C36.8952 22.1412 38.1355 22.0232 39.2299 21.7399C40.4458 21.4329 41.5403 21.008 42.4887 20.4178C43.3642 19.8748 44.0938 19.1666 44.6045 18.3403C45.1151 17.5141 45.407 16.6406 45.4313 15.7435C45.3502 15.6845 45.3536 15.6255 45.357 15.5664C45.3577 15.5546 45.3583 15.5428 45.3583 15.531Z" fill="#050505"/>
<path fill-rule="evenodd" clip-rule="evenodd" d="M22.2793 5.80468C21.3309 4.29379 19.969 3.06619 18.2667 2.1691C17.2452 1.62612 16.0293 1.2248 14.6431 0.941504C13.2083 0.634602 11.3357 0.49295 9.02534 0.49295H1V21.8815H9.09831C11.287 21.8815 13.0624 21.7635 14.4486 21.4802C15.8347 21.2205 17.0994 20.7955 18.2424 20.1818C19.8961 19.3083 21.2336 18.0807 22.2307 16.499C23.2278 14.9172 23.7385 13.1231 23.7385 11.1872C23.7385 9.15699 23.2521 7.33915 22.2793 5.80468ZM19.0205 11.1636C19.0205 12.6273 18.7531 13.8077 18.2424 14.7284C17.7316 15.6491 16.9534 16.3809 15.8834 16.9711C15.0079 17.4433 14.0594 17.7738 13.0137 17.939C11.9437 18.1279 10.6548 18.2223 9.19556 18.2223H5.5477V4.19936H9.19556C10.6061 4.19936 11.8221 4.29379 12.8191 4.45904C13.792 4.6243 14.7161 4.90759 15.5673 5.33253C16.7346 5.89911 17.5614 6.65456 18.1451 7.59889C18.7287 8.49594 19.0205 9.67633 19.0205 11.1636Z" fill="#050505"/>
<path d="M46.0149 4.19936V0.44574H67.4156V4.19936H59.0014V21.8343H54.4294V4.19936H46.0149Z" fill="#050505"/>
</g>
<defs>
<clipPath id="clip0_838_856">
<rect width="67" height="40" fill="white" transform="translate(1)"/>
</clipPath>
</defs>
</svg>
