<svg width="180" height="40" viewBox="0 0 180 40" fill="none" xmlns="http://www.w3.org/2000/svg">
<path d="M0.814602 9L0 12.1769H7.54865L4.779 23.2555L2.74249 31.4287H7.68442L9.72092 23.2555L12.4906 12.1769H20.0121L20.7995 9H0.814602ZM151.679 9.24438C151.277 10.8953 150.908 12.1835 150.539 13.2902H148.692L149.289 12.9101C150.319 12.2421 150.826 11.8989 150.837 11.8511C150.288 10.6097 149.823 9.75269 149.398 9.32584C149.386 9.24868 148.602 9.72771 147.09 10.7107L146.574 11.0365C146.585 11.0604 146.647 11.1527 146.764 11.308C147.296 11.9999 147.746 12.6516 148.095 13.2902H146.574L146.085 15.5711H149.507L149.262 16.0327L149.018 16.4943H145.325L144.863 18.7752H147.416C146.326 20.1047 145.031 21.1723 143.533 21.9793L145.922 10.5749H139.324L136.853 22.3595C136.787 22.6679 136.712 22.9612 136.636 23.2555C136.061 25.5353 135.207 27.5805 134.056 29.3922C134.754 30.0081 135.322 30.6684 135.794 31.3744C137.177 29.402 138.263 26.8767 139.08 23.7715H140.519L139.704 27.6272C139.64 28.1551 139.104 28.393 138.129 28.3061C138.333 29.2499 138.419 30.1949 138.347 31.1843C140.698 31.1691 141.885 30.6391 141.931 29.5551L143.261 23.2555L143.343 22.8211C143.489 22.9677 143.626 23.1122 143.75 23.2555C144.067 23.6292 144.314 23.9963 144.483 24.3688C144.844 24.1907 145.272 23.917 145.759 23.4999L144.891 26.3239H152.792L152.656 27.057C152.344 28.582 151.904 29.3227 151.353 29.2293L151.788 27.057H143.316L142.827 29.3108H149.724C150.118 30.1612 150.286 31.0323 150.213 31.9446C152.413 31.8729 153.761 31.5341 154.286 30.9128C154.45 30.7314 154.622 30.4164 154.802 29.881C155.161 28.8046 155.582 27.2308 156.105 25.1563L156.404 23.9615H153.471L153.634 23.2555L153.851 22.1694C154.373 22.6256 154.835 22.9807 155.236 23.2555C155.533 23.4586 155.794 23.614 156.023 23.7171C156.149 23.5597 156.279 23.4043 156.404 23.2555C157.16 22.3378 157.877 21.5731 158.549 20.9475C156.778 20.4435 155.481 19.7202 154.666 18.7752H158.549L159.01 16.4943H152.032C152.219 16.2206 152.393 15.9263 152.521 15.5711H158.277L158.739 13.2902H156.675C157.577 12.4094 158.37 11.6849 159.092 11.118L156.675 9.62453C155.901 10.6129 155.066 11.5752 154.15 12.5028L155.616 13.3989H153.525L153.824 12.4485L154.204 11.4981C154.521 10.6976 154.782 10.0894 154.965 9.70599C154.982 9.5485 154.879 9.46921 154.557 9.43445C153.948 9.33887 152.991 9.27588 151.679 9.24438ZM166.287 9.43445C165.551 9.67884 164.406 10.1252 162.812 10.7921C163.314 12.2226 163.675 13.6498 163.925 15.0824C164.489 14.8684 165.712 14.4481 167.564 13.779C166.791 10.9985 166.349 9.54415 166.287 9.43445ZM168.976 10.6564L168.405 13.2902H170.578L169.546 18.205H166.831L166.26 20.8389H169.003L168.487 23.2555L166.831 31.1029H169.872L171.501 23.2555L172.017 20.8389H174.189L173.755 22.8211C173.723 22.9677 173.7 23.1111 173.673 23.2555C173.117 26.1675 173.403 28.4451 174.515 30.071C175.193 31.0345 176.011 31.4418 176.986 31.293C177.996 31.3451 179.007 29.7148 180 26.4053C179.096 25.9948 178.264 25.6331 177.529 25.3192C177.036 26.8354 176.73 27.3275 176.606 26.7855C176.411 26.0122 176.452 24.8359 176.714 23.2555C176.799 22.7451 176.908 22.1966 177.04 21.5992L179.348 10.6564H168.976ZM123.874 10.9279L122.842 15.1095H118.878L118.117 18.205H132.617L123.874 10.9279ZM141.361 12.9101H142.8L142.121 16.1413H140.709L141.361 12.9101ZM173.592 13.2902H175.873L174.841 18.205H172.56L173.592 13.2902ZM26.4746 14.1863C23.4616 14.1863 20.8484 14.9738 18.6272 16.5486C16.418 18.1464 14.9833 20.2393 14.337 22.8211C14.299 22.9721 14.2588 23.1078 14.2284 23.2555C13.732 25.6526 14.1719 27.6077 15.5589 29.0935C17.0371 30.6576 19.318 31.4287 22.4016 31.4287C27.6574 31.4287 31.6859 28.2224 32.0953 27.8716L29.8144 27.3557C29.2779 27.4795 26.3562 28.3256 23.4334 28.0617C19.746 27.7304 18.9096 25.0303 19.116 23.69H33.9146L34.0504 23.2555L34.159 22.7939C34.8302 20.1025 34.4751 17.9856 33.1 16.4672C31.7141 14.9357 29.5179 14.1863 26.4746 14.1863ZM70.3273 14.1863C67.1569 14.1863 64.2895 15.0085 61.6925 16.6844C59.0913 18.3614 57.4957 20.4392 56.8864 22.8754C56.8528 23.009 56.8038 23.1241 56.7778 23.2555C56.3227 25.5169 56.9255 27.4296 58.5699 28.9849C60.3142 30.6163 62.783 31.4287 65.9828 31.4287C67.9215 31.4287 69.9559 31.0268 72.0923 30.234L73.3414 25.2649C71.9207 26.3586 70.7292 27.0853 69.7843 27.4643C68.8089 27.8553 67.7543 28.0617 66.6073 28.0617C64.8098 28.0617 63.4499 27.5795 62.5343 26.5954C61.724 25.7091 61.434 24.5839 61.6654 23.2555C61.6915 23.1089 61.736 22.9721 61.774 22.8211C62.1487 21.3244 63.0502 20.0666 64.4893 19.0739C65.9252 18.0812 67.5512 17.5805 69.3498 17.5805C70.4957 17.5805 71.4232 17.7749 72.1738 18.1779C72.9384 18.5678 73.74 19.2998 74.5633 20.3501L75.8123 15.3267C74.1929 14.5567 72.366 14.1863 70.3273 14.1863ZM88.2214 14.1863C85.2074 14.1863 82.5942 14.9738 80.3741 16.5486C78.1638 18.1464 76.729 20.2393 76.0839 22.8211C76.0459 22.9721 76.0067 23.1078 75.9752 23.2555C75.4778 25.6526 75.9166 27.6077 77.3058 29.0935C78.7818 30.6576 81.066 31.4287 84.1484 31.4287C89.4021 31.4287 93.4338 28.2224 93.8422 27.8716L91.5613 27.3557C91.0247 27.4795 88.103 28.3256 85.1802 28.0617C81.4939 27.7304 80.6543 25.0303 80.8629 23.69H95.6615L95.7972 23.2555L95.9058 22.7939C96.5792 20.1025 96.2469 17.9856 94.874 16.4672C93.4881 14.9357 91.2659 14.1863 88.2214 14.1863ZM49.7179 14.6479C47.6238 14.6479 45.5765 15.2952 43.5812 16.603L39.1552 15.1095L37.1187 23.2555L35.0822 31.4287H39.8884L41.8434 23.5542C41.8684 23.4532 41.8999 23.3468 41.9248 23.2555C42.4244 21.3787 43.0946 20.0406 43.907 19.264C44.7781 18.4385 45.9881 18.0421 47.5727 18.0421C49.0303 18.0421 49.9742 18.3386 50.3695 18.9653C50.7812 19.5779 50.7725 20.6966 50.3695 22.3052L50.1523 23.2555L48.0886 31.4287H52.8948L54.9313 23.2555L55.3929 21.4091C55.9697 19.1076 55.8111 17.4599 54.9042 16.44C53.8582 15.2453 52.1248 14.6479 49.7179 14.6479ZM111.057 14.6479C108.962 14.6479 106.918 15.2952 104.921 16.603L100.495 15.1095L98.4583 23.2555L96.4218 31.4287H101.228L103.183 23.5542C103.209 23.4532 103.238 23.3468 103.264 23.2555C103.766 21.3787 104.432 20.0406 105.247 19.264C106.119 18.4385 107.325 18.0421 108.912 18.0421C110.369 18.0421 111.313 18.3386 111.709 18.9653C112.12 19.5779 112.112 20.6966 111.709 22.3052L111.465 23.2555L109.428 31.4287H114.234L116.271 23.2555L116.732 21.4091C117.309 19.1076 117.15 17.4599 116.244 16.44C115.199 15.2453 113.462 14.6479 111.057 14.6479ZM159.852 16.3586L159.282 19.0196H161.97L161.074 23.2555L160.504 26.0795C160.38 26.6704 159.908 27.2862 159.092 27.9531C158.852 28.1508 158.704 28.2778 158.685 28.3332C158.983 29.2684 159.515 30.1807 160.259 31.0214C160.317 31.0366 160.635 30.7564 161.183 30.2068C161.999 29.3412 164.072 27.4328 167.428 24.4774C167.417 24.4394 167.232 24.043 166.885 23.3098L166.858 23.2555L166.369 22.1694L165.826 22.631C165.565 22.8602 165.313 23.0709 165.093 23.2555C164.506 23.7639 164.061 24.1364 163.762 24.3688L164.007 23.2555L165.446 16.3586H159.852ZM25.7143 17.5805C28.2624 17.5805 29.6244 18.5819 29.7873 20.5945H20.2021C20.4737 20.1253 20.7887 19.7147 21.1797 19.3454C21.5674 18.9783 22.0051 18.6514 22.483 18.3951C22.974 18.1257 23.4877 17.9324 24.0308 17.7977C24.576 17.6522 25.1343 17.5805 25.7143 17.5805ZM87.4611 17.5805C90.0092 17.5805 91.3734 18.5819 91.5341 20.5945H81.949C82.2227 20.1253 82.5388 19.7147 82.9265 19.3454C83.3164 18.9783 83.7574 18.6514 84.2299 18.3951C84.7252 18.1257 85.2346 17.9324 85.7776 17.7977C86.325 17.6522 86.8801 17.5805 87.4611 17.5805ZM140.22 18.3951H141.632L141.008 21.4091H139.596L140.22 18.3951ZM150.62 18.7752H151.462C151.574 19.0978 151.729 19.4193 151.923 19.7256H149.86L150.24 19.2368L150.62 18.7752ZM121.892 18.911L120.806 23.2555L118.742 31.4287H123.521L125.585 23.2555L126.671 18.911H121.892ZM147.687 21.8707H151.082L150.81 23.2555L150.62 24.043H148.285C148.372 23.7519 148.45 23.4912 148.529 23.2555C148.619 22.984 148.692 22.7527 148.774 22.5496C148.659 22.4844 148.59 22.4409 148.529 22.4409H147.117L147.687 21.8707Z" fill="#050505"/>
</svg>
