<svg width="180" height="40" viewBox="0 0 180 40" fill="none" xmlns="http://www.w3.org/2000/svg">
<path d="M170.984 10.3737C172.19 10.2672 173.576 10.1597 174.79 10.1353C176.264 10.1057 179.032 9.23692 179.238 11.4209C179.323 12.3212 177.795 13.2749 177.106 13.7602C175.836 14.6535 174.472 15.926 173.118 16.6437C172.132 17.3741 169.722 19.3814 168.849 19.8316C168.949 20.0311 169.729 20.772 169.951 21.0181C171.278 22.4904 172.224 25.3046 171.442 27.3146C169.982 31.0632 167.707 35.6844 164.005 37.6546C162.477 38.4682 160.947 39.1612 159.287 39.2235C158.424 39.7195 154.843 39.148 153.839 38.8508L153.719 38.5074C153.324 37.4207 150.37 30.505 150.484 29.9045L151.679 29.644C152.813 29.4359 154.275 29.0485 155.417 28.7806C157.82 28.2319 160.213 27.6429 162.597 27.0134C162.468 23.9388 161.86 20.8016 161.584 17.7352C161.412 15.8242 160.739 13.3959 161.87 11.7232C161.892 11.7002 161.913 11.6778 161.936 11.6559C163.319 10.2831 168.942 10.3458 170.984 10.3737Z" fill="url(#paint0_linear_16478_198)"/>
<path d="M174.789 10.1352C176.264 10.1056 179.032 9.23706 179.238 11.4211C179.323 12.3213 177.795 13.2751 177.106 13.7604C175.836 14.6537 174.472 15.926 173.118 16.6436C172.132 17.3741 169.722 19.3813 168.849 19.8316C168.949 20.0311 169.729 20.7717 169.95 21.018C170.788 21.9469 171.473 23.4103 171.669 24.8686C168.616 25.5941 165.561 26.3156 162.506 27.0368C162.536 27.0289 162.566 27.0214 162.597 27.0134C162.468 23.9388 161.86 20.8017 161.584 17.7353C161.412 15.8243 160.738 13.396 161.87 11.7233C161.892 11.7003 161.913 11.6778 161.936 11.6558C163.319 10.2831 168.942 10.3459 170.984 10.3738C172.19 10.2673 173.576 10.1596 174.789 10.1352Z" fill="url(#paint1_linear_16478_198)"/>
<path d="M174.79 10.1352C176.264 10.1056 179.032 9.23709 179.238 11.4211C179.322 12.3213 177.795 13.2751 177.106 13.7604C176.885 13.9157 176.661 14.0821 176.435 14.2554C176.407 14.2754 176.378 14.295 176.351 14.3143C175.52 14.8955 174.67 15.5575 173.806 16.235C173.577 16.3838 173.348 16.5221 173.118 16.6436C172.385 17.1871 170.863 18.4372 169.772 19.2271C169.297 19.5348 168.822 19.8193 168.348 20.0695C167.045 21.0292 164.502 23.0924 162.418 24.6473C162.179 22.3407 161.789 20.0184 161.584 17.7353C161.412 15.8244 160.739 13.396 161.87 11.7233C161.892 11.7003 161.913 11.6778 161.936 11.6558C163.32 10.2832 168.942 10.3459 170.984 10.3738C172.19 10.2673 173.576 10.1596 174.79 10.1352Z" fill="url(#paint2_linear_16478_198)"/>
<path d="M136.202 18.77C137.594 18.1525 143.427 14.0883 144.216 14.0754C144.353 14.4335 144.86 15.6987 144.904 15.9972C145.699 17.4177 149.976 29.5679 150.484 29.9044C150.37 30.505 153.324 37.4207 153.719 38.5073L153.839 38.8507C153.525 38.8085 153.148 38.7025 152.832 38.6261C149.677 37.8624 146.508 37.142 143.358 36.3598C141.125 35.8052 138.918 35.3086 137.163 33.7228C135.341 31.8467 134.511 29.0333 135.141 26.4643C135.286 25.5867 135.502 23.3277 135.697 22.6596C135.724 21.8141 136.081 19.6927 136.202 18.77Z" fill="url(#paint3_linear_16478_198)"/>
<path d="M136.202 18.77C137.594 18.1525 143.427 14.0883 144.216 14.0754C144.353 14.4335 144.86 15.6987 144.904 15.9972C145.699 17.4177 149.976 29.5679 150.484 29.9044C150.37 30.505 153.324 37.4207 153.719 38.5073L153.839 38.8507C153.525 38.8085 153.148 38.7025 152.832 38.6261C149.677 37.8624 146.508 37.142 143.358 36.3598C141.125 35.8052 138.918 35.3086 137.163 33.7228C135.341 31.8467 134.511 29.0333 135.141 26.4643C135.286 25.5867 135.502 23.3277 135.697 22.6596C135.724 21.8141 136.081 19.6927 136.202 18.77Z" fill="url(#paint4_radial_16478_198)"/>
<path d="M150.483 29.9046C150.37 30.5055 153.324 37.4209 153.718 38.5075L153.838 38.8508C153.525 38.8086 153.148 38.7027 152.832 38.6263C149.677 37.8625 146.508 37.1421 143.358 36.36C141.124 35.8054 138.918 35.3086 137.162 33.7229C136.985 33.5409 136.818 33.3499 136.661 33.1514C139.058 32.6807 142.004 31.9024 144.338 31.3532C146.389 30.8836 148.437 30.3996 150.482 29.9028C150.482 29.9033 150.483 29.9041 150.483 29.9046Z" fill="url(#paint5_linear_16478_198)"/>
<path d="M171.671 24.8896C171.782 25.7356 171.728 26.5789 171.442 27.3147C169.982 31.0633 167.706 35.6847 164.005 37.6549C163.922 37.6989 163.84 37.7418 163.757 37.785C163.502 35.5843 163.256 33.452 163.046 31.4718C162.899 29.9972 162.748 28.4877 162.596 27.0138C165.624 26.3078 168.649 25.6059 171.671 24.8896Z" fill="url(#paint6_linear_16478_198)"/>
<path d="M142.943 0.43495C144.381 -0.0367855 149.414 0.182914 151.211 0.151761L158.007 0.0462885C158.763 0.0377676 161.83 -0.139375 162.323 0.261233C163.441 1.17029 163.097 2.91999 161.751 3.43978C158.317 5.60533 154.847 7.58057 151.43 9.69149L146.184 12.886C145.932 13.039 144.392 14.012 144.215 14.0754C143.427 14.0883 137.594 18.1524 136.202 18.7699C136.659 15.0385 137.252 11.3073 137.698 7.57165C137.883 6.02653 138.108 4.58564 139.017 3.28926C139.821 2.13564 141.555 0.723671 142.943 0.43495Z" fill="url(#paint7_linear_16478_198)"/>
<path d="M139.938 2.23706C140.254 3.04578 140.773 4.3883 140.829 4.76229C141.356 5.703 142.86 9.65033 144.481 13.9313C144.349 14.0083 144.252 14.0622 144.215 14.0755C143.426 14.0887 137.594 18.1525 136.202 18.77C136.659 15.0385 137.252 11.3072 137.698 7.57154C137.882 6.02646 138.108 4.58551 139.016 3.28915C139.254 2.94903 139.572 2.58669 139.938 2.23706Z" fill="url(#paint8_linear_16478_198)"/>
<path fill-rule="evenodd" clip-rule="evenodd" d="M72.7156 15.0532C75.1391 14.763 76.5323 15.5924 78.3967 16.915L79.3338 15.4298C80.4374 15.4074 81.6219 15.4304 82.7318 15.4326L82.7137 26.021C82.7127 31.4017 83.2826 37.1996 76.8109 39.1318C73.4693 40.1295 70.2241 39.2613 67.2319 37.6191C67.1765 36.2908 67.224 34.6034 67.2244 33.2479C67.2257 33.1296 67.2512 32.9521 67.2646 32.8293C67.4246 32.7952 67.5443 32.8149 67.6777 32.9301C68.5809 33.7101 69.3031 34.2388 70.3885 34.7582C72.4752 35.7567 75.2173 35.9034 76.9448 34.123C78.3795 32.6444 78.3737 30.6385 78.3453 28.7211C76.0266 31.7525 72.646 32.6596 69.383 30.3612C65.4232 27.5719 65.0767 21.6965 67.8663 17.9371C69.1844 16.1609 70.5611 15.4205 72.7156 15.0532ZM74.3729 18.9465C73.1912 19.1187 72.3536 19.5577 71.6252 20.5508C70.9234 21.5042 70.6279 22.7021 70.8046 23.8772C71.1363 26.0511 72.6925 27.4784 74.8755 27.4679C78.2854 26.6196 78.4634 23.8594 78.3558 20.8879C77.4627 19.8733 76.421 19.0482 75.0161 18.9655C74.8018 18.9538 74.5874 18.9476 74.3729 18.9465Z" fill="#575757"/>
<path fill-rule="evenodd" clip-rule="evenodd" d="M30.423 15.0628C31.9604 14.914 33.5768 15.0648 35.0285 15.6543C40.2299 17.7663 38.1864 23.3153 38.8106 27.6755C39.0412 29.2867 39.4727 30.1817 40.0746 31.6567C38.4535 31.6001 36.6386 31.6403 35.0029 31.6432C34.7748 31.0999 34.5625 30.2883 34.3921 29.7053C31.9607 32.4679 28.5151 32.8209 25.5765 30.6641C23.7312 29.1186 22.843 26.398 24.3023 24.3488C26.3179 21.5187 31.2224 21.3843 34.293 20.7949C34.2308 20.666 34.1656 20.5386 34.0975 20.4128C33.0492 18.4865 30.6285 18.4888 28.7732 18.9538C27.4757 19.279 26.3536 19.9438 25.1965 20.5935C25.2042 19.2609 25.2025 17.9282 25.1914 16.5955C26.8919 15.6766 28.5328 15.2935 30.423 15.0628ZM34.4755 24.0713C34.2064 24.0582 34.069 24.0454 33.8043 24.0899C32.0423 24.3234 29.4865 24.6139 28.2666 26.0612C27.473 27.0027 28.5334 27.9056 29.3116 28.3413C31.8935 29.0065 33.7114 27.2385 34.4973 24.8497C34.566 24.641 34.6004 24.2562 34.4755 24.0713Z" fill="#575757"/>
<path d="M12.0125 7.49505C14.7114 7.02415 18.7124 8.15573 21.0334 9.5889C20.9658 11.1963 20.9929 12.9477 20.9911 14.5677C19.4275 13.0792 16.8748 11.9757 14.7744 11.6043C7.31659 10.2855 3.6531 19.6221 7.61948 25.0828C9.44319 27.5935 12.607 28.7066 15.2582 26.7818C16.6296 25.7755 16.9521 24.4211 17.1706 22.8216C15.2413 22.7661 13.1366 22.8056 11.1939 22.8031L11.1959 18.897L21.6759 18.899L21.6653 31.6718C20.3236 31.6147 18.9862 31.638 17.6442 31.6618C17.5193 30.7527 17.4217 29.7981 17.3143 28.8832C14.3445 32.0832 10.7541 33.187 6.72869 30.69C-1.01771 25.8844 -0.435721 12.8411 7.67566 8.69208C9.08395 7.97178 10.4183 7.6412 12.0125 7.49505Z" fill="#575757"/>
<path fill-rule="evenodd" clip-rule="evenodd" d="M93.2217 15.0167C98.7429 15.1036 101.1 19.1075 101.083 24.1543C97.1986 24.0919 93.1142 24.1318 89.2278 24.154C89.9224 26.061 91.1389 27.5351 93.2227 27.9C95.7382 28.3406 98.0629 26.8905 100.036 25.4956C100.183 25.4014 100.133 25.4012 100.269 25.4233C100.448 25.9544 100.387 29.0321 100.384 29.769C98.8228 30.6931 96.6563 31.625 94.8623 31.9214C90.2122 32.6894 85.5456 29.7311 84.8338 24.8401C84.498 22.4678 85.1066 20.0575 86.5258 18.1385C87.8614 16.34 89.953 15.3663 92.1116 15.0573C92.4397 15.01 92.8849 15.0113 93.2217 15.0167ZM93.0453 18.2408C91.2973 18.6371 90.3225 19.3437 89.602 21.0373L93.3187 21.0431L96.3925 21.0276C95.7804 19.5923 94.7741 18.2116 93.0453 18.2408Z" fill="#575757"/>
<path d="M115.657 15.0632C118.612 14.8546 119.929 15.3749 122.603 16.4685L122.596 20.6028C120.816 19.7881 119.643 18.7182 117.527 18.6956C116.568 18.6853 114.789 18.7284 114.76 20.0547C115.534 21.8673 120.668 21.6416 122.412 23.6417C123.197 24.3854 123.48 25.1276 123.55 26.2327C123.802 30.2067 119.465 31.8942 116.267 32.034C113.84 32.0642 112 31.4733 109.891 30.2582L109.875 25.8998C112.019 27.468 113.715 28.7407 116.57 28.3709C117.292 28.2774 119.059 27.3603 118.77 26.6128C118.019 25.0713 115.123 24.8157 113.53 24.2937C110.223 23.2104 108.712 20.4286 110.793 17.3274C111.811 15.8112 113.872 15.2924 115.657 15.0632Z" fill="#575757"/>
<path d="M57.5113 15.0535C60.3239 14.7147 63.2855 15.9263 63.8833 18.993C64.2345 20.7948 64.1211 22.8186 64.122 24.6632C64.1381 27.0077 64.1284 29.3526 64.0931 31.697C62.5932 31.6496 61.2948 31.6339 59.7897 31.6536C59.6717 28.7755 59.8349 25.7929 59.7764 22.8988C59.7403 21.1153 59.7862 19.2511 57.4353 19.2853C56.2765 19.3021 55.6345 19.7389 54.8576 20.5536C54.2577 21.3133 53.8281 22.1959 53.5984 23.1401C53.1877 24.8145 53.3218 29.7716 53.3199 31.6715C51.91 31.607 50.4367 31.6372 49.025 31.6605C48.8642 26.5394 49.0017 20.6045 49.0018 15.4222L53.0996 15.4319C53.1623 16.2561 53.2043 16.8847 53.3645 17.6948C54.6959 16.1877 55.4712 15.416 57.5113 15.0535Z" fill="#575757"/>
<path d="M107.554 7.82933L107.543 31.6209C106.725 31.7671 104.226 31.645 103.226 31.6605C103.144 29.0138 103.206 26.0456 103.206 23.3797L103.21 7.8221L107.554 7.82933Z" fill="#575757"/>
<path d="M46.1027 15.4312L46.0976 31.6704C44.6628 31.6275 43.2268 31.6242 41.7918 31.6605C41.6844 26.3758 41.7792 20.7336 41.7785 15.4215L46.1027 15.4312Z" fill="#575757"/>
<path d="M43.3527 7.52982C44.7249 7.19335 46.1059 8.04937 46.433 9.4388C46.76 10.8282 45.9084 12.222 44.5336 12.5472C43.1667 12.8705 41.7986 12.0148 41.4734 10.6334C41.1483 9.25193 41.9883 7.86435 43.3527 7.52982Z" fill="#575757"/>
<path d="M170.984 10.3737C172.19 10.2672 173.576 10.1597 174.79 10.1353C176.264 10.1057 179.032 9.23692 179.238 11.4209C179.323 12.3212 177.795 13.2749 177.106 13.7602C175.836 14.6535 174.472 15.926 173.118 16.6437C172.132 17.3741 169.722 19.3814 168.849 19.8316C168.449 19.605 162.083 12.1266 161.87 11.7232C161.892 11.7002 161.913 11.6778 161.936 11.6559C163.319 10.2831 168.942 10.3458 170.984 10.3737Z" fill="url(#paint9_linear_16478_198)"/>
<defs>
<linearGradient id="paint0_linear_16478_198" x1="151" y1="29.6047" x2="171.618" y2="29.7238" gradientUnits="userSpaceOnUse">
<stop offset="0.0455333" stop-color="#2F2F2F"/>
<stop offset="1" stop-color="#A5A5A5"/>
</linearGradient>
<linearGradient id="paint1_linear_16478_198" x1="167.039" y1="26.4319" x2="165.481" y2="21.3794" gradientUnits="userSpaceOnUse">
<stop offset="0.0455333" stop-color="#9D9D9D"/>
<stop offset="0.485577" stop-color="#EEEEEE"/>
</linearGradient>
<linearGradient id="paint2_linear_16478_198" x1="170.178" y1="18.3236" x2="162.071" y2="17.8587" gradientUnits="userSpaceOnUse">
<stop stop-color="#DDDDDD"/>
<stop offset="1" stop-color="#DFDFDF"/>
</linearGradient>
<linearGradient id="paint3_linear_16478_198" x1="147.164" y1="32.4249" x2="136.801" y2="22.4538" gradientUnits="userSpaceOnUse">
<stop stop-color="#A5A5A5"/>
<stop offset="1" stop-color="#2F2F2F"/>
</linearGradient>
<radialGradient id="paint4_radial_16478_198" cx="0" cy="0" r="1" gradientTransform="matrix(9.41453 -7.4032 5.64953 7.34383 134.96 32.6012)" gradientUnits="userSpaceOnUse">
<stop stop-color="#A0A0A0"/>
<stop offset="1" stop-color="#A0A0A0" stop-opacity="0"/>
</radialGradient>
<linearGradient id="paint5_linear_16478_198" x1="153.838" y1="34.3768" x2="136.661" y2="34.3768" gradientUnits="userSpaceOnUse">
<stop stop-color="#ACACAC"/>
<stop offset="1" stop-color="#5C5C5C"/>
</linearGradient>
<linearGradient id="paint6_linear_16478_198" x1="171.572" y1="28.3709" x2="161.631" y2="26.9908" gradientUnits="userSpaceOnUse">
<stop stop-color="#CECECE"/>
<stop offset="1" stop-color="#707070"/>
</linearGradient>
<linearGradient id="paint7_linear_16478_198" x1="149.605" y1="11.8016" x2="142.522" y2="0.943874" gradientUnits="userSpaceOnUse">
<stop stop-color="#4C4C4C"/>
<stop offset="1" stop-color="#BFBFBF"/>
</linearGradient>
<linearGradient id="paint8_linear_16478_198" x1="140.341" y1="2.23706" x2="140.341" y2="18.77" gradientUnits="userSpaceOnUse">
<stop stop-color="#ACACAC"/>
<stop offset="1" stop-color="#5C5C5C"/>
</linearGradient>
<linearGradient id="paint9_linear_16478_198" x1="168.434" y1="19.7337" x2="172.318" y2="10.6269" gradientUnits="userSpaceOnUse">
<stop stop-color="#363636"/>
<stop offset="1" stop-color="#9E9E9E"/>
</linearGradient>
</defs>
</svg>
