<svg width="82" height="40" viewBox="0 0 82 40" fill="none" xmlns="http://www.w3.org/2000/svg">
<path d="M1 20V39H20.1645H39.329V20V0.999999H20.1645H1V20ZM13.0416 14.5879C13.058 15.1636 13.0745 15.7558 13.0745 15.9203C13.1074 16.4797 12.7455 16.2493 12.3506 15.4268C11.7749 14.2424 11.3801 14.0121 9.75152 13.8805C8.64935 13.7983 8.3368 13.8312 8.22165 14.0121C8.13939 14.1437 8.07359 15.1143 8.07359 16.1835C8.07359 18.3714 8.12294 18.4537 9.24156 18.1247C9.88312 17.9273 10.1134 17.6312 10.4589 16.5619C10.5247 16.3481 10.6069 16.2987 10.7221 16.4139C10.9195 16.6113 10.8537 20.5758 10.6398 20.5922C10.5576 20.5922 10.3766 20.2303 10.2286 19.8026C9.99827 19.1117 9.88312 18.9801 9.29091 18.7827C8.12294 18.3714 8.09004 18.4537 8.12294 20.9377L8.15584 23.1255L9.53766 23.1749C11.6104 23.2407 12.1697 22.9281 12.6797 21.3654C13.1403 19.9506 13.3377 20.1645 13.3377 22.0398V23.7013H8.96191C5.54026 23.7013 4.6026 23.6519 4.65195 23.4874C4.7013 23.3887 5.0632 23.2736 5.49091 23.2407L6.26407 23.1913L6.23117 18.5524L6.18182 13.9134L5.40866 13.8641C4.9645 13.8312 4.61905 13.7489 4.61905 13.6667C4.61905 13.5186 11.6104 13.3541 12.5645 13.4857C12.9922 13.5351 13.0087 13.568 13.0416 14.5879ZM35.9403 16.6277C36.1541 16.8416 36.2199 17.0554 36.1377 17.3351C35.9403 18.1576 34.7723 18.1082 34.6078 17.2693C34.4926 16.6935 34.3939 16.6771 33.9169 17.187C33.3082 17.8286 33.0779 18.9472 33.0779 21.1844V23.2078H33.7359C34.213 23.2078 34.3939 23.2736 34.3939 23.4545C34.3939 23.6684 34.0978 23.7013 32.387 23.6684C31.1697 23.6355 30.3636 23.5532 30.3636 23.4545C30.3636 23.3558 30.6433 23.2736 30.9887 23.2407L31.5974 23.1913L31.5645 20.0329L31.5152 16.8745L30.9065 16.8251C30.2814 16.7758 30.0182 16.4632 30.5939 16.4632C30.7584 16.4632 31.3507 16.4139 31.91 16.3645L32.9134 16.2493V16.858C32.9134 17.5818 33.0779 17.5983 33.6372 16.9403C34.3281 16.1177 35.2658 15.9861 35.9403 16.6277ZM27.419 16.6277C28.5541 17.187 29.2944 18.4866 29.2944 19.9506C29.2944 21.1186 29.0147 21.9411 28.3403 22.7307C27.6329 23.5532 26.942 23.8658 25.8563 23.8658C24.8199 23.8658 24.2442 23.6519 23.5697 22.9939C22.1385 21.6286 21.9082 19.4078 23.0104 17.7299C23.9152 16.3645 25.8563 15.871 27.419 16.6277ZM17.9437 16.6277C17.9437 16.71 17.7628 16.7922 17.5325 16.7922C17.0061 16.7922 17.0225 16.8416 17.6312 17.7957C18.4208 19.0459 18.4701 19.0459 19.161 18.026C19.8684 16.9567 19.8848 16.7922 19.342 16.7922C19.1117 16.7922 18.9307 16.71 18.9307 16.6277C18.9307 16.529 19.4736 16.4632 20.2468 16.4632C21.0199 16.4632 21.5628 16.529 21.5628 16.6277C21.5628 16.71 21.3489 16.7922 21.0857 16.7922C20.658 16.7922 20.4771 16.9732 19.671 18.1082C19.1281 18.8649 18.7991 19.5065 18.8649 19.6216C18.9143 19.7368 19.4571 20.5922 20.0658 21.5134C21.0035 22.961 21.2173 23.1913 21.6121 23.2078C21.8918 23.2078 22.0563 23.29 22.0563 23.4545C22.0563 23.6684 21.7931 23.7013 20.3784 23.6684C19.3913 23.6355 18.684 23.5532 18.684 23.4545C18.684 23.3558 18.8485 23.2736 19.0623 23.2407C19.3255 23.2078 19.4242 23.1091 19.3584 22.9446C19.1775 22.5004 18.1082 20.9048 17.9766 20.9048C17.8286 20.9048 16.4632 22.8294 16.4632 23.0433C16.4632 23.1255 16.6277 23.2078 16.8416 23.2407C17.039 23.2736 17.2035 23.3558 17.2035 23.4545C17.2035 23.5532 16.6113 23.6355 15.8545 23.6684C14.7195 23.7013 14.4892 23.6684 14.4892 23.4545C14.4892 23.29 14.6537 23.2078 15.0485 23.2078C15.5749 23.2078 15.69 23.1091 16.4468 22.0069C16.9074 21.3654 17.3515 20.7403 17.4502 20.6251C17.7134 20.3126 17.6641 20.1481 16.9732 19.1281C16.6277 18.6182 16.1506 17.8779 15.9039 17.4831C15.5584 16.9238 15.3775 16.7922 14.9827 16.7922C14.703 16.7922 14.4892 16.71 14.4892 16.6277C14.4892 16.529 15.1801 16.4632 16.2165 16.4632C17.2528 16.4632 17.9437 16.529 17.9437 16.6277Z" fill="#050505"/>
<path d="M24.8194 16.9402C24.2601 17.3844 24.0298 18.3056 24.0298 20.1316C24.0298 21.9082 24.3094 22.8623 24.9345 23.2736C25.7242 23.7835 26.7276 23.5203 27.254 22.6649C27.5172 22.2207 27.5666 21.8095 27.5666 20.0822C27.5666 17.8943 27.3692 17.1705 26.6783 16.7922C26.1683 16.529 25.2636 16.5948 24.8194 16.9402Z" fill="#050505"/>
<path d="M45.0867 13.5514C43.6062 14.0285 42.5369 15.9861 42.9646 17.4501C43.1949 18.2233 44.2313 19.2268 44.9715 19.3748C45.2183 19.4242 45.4157 19.5229 45.4157 19.6051C45.4157 19.6874 45.5802 19.7532 45.794 19.7532C46.4027 19.7532 48.3767 20.5099 48.8044 20.9211C49.4131 21.4969 49.3473 22.4346 48.6399 23.1419C48.1135 23.6683 48.0148 23.7012 46.9291 23.7012C45.975 23.7012 45.6953 23.6354 45.1525 23.2735C44.3464 22.7142 44.0997 22.3852 43.672 21.2501C43.4088 20.5757 43.2278 20.3125 42.9646 20.2796C42.6191 20.2302 42.6191 20.2631 42.6191 22.451C42.6191 24.5731 42.6356 24.6882 42.9481 24.6882C43.1291 24.6882 43.4252 24.4579 43.6391 24.1947C44.0503 23.619 44.1326 23.6025 44.7083 23.9809C46.3862 25.083 48.4261 24.8527 49.7256 23.4051C50.8442 22.1549 50.8936 20.7731 49.8243 19.6545C49.3308 19.1281 48.936 18.9307 47.1429 18.2726C45.4486 17.664 44.5767 17.2363 44.4122 16.9402C44.33 16.7757 44.2642 16.348 44.2642 15.9861C44.2642 14.7688 45.3663 14.0449 46.7975 14.3575C47.7845 14.5713 48.5248 15.3116 48.936 16.5289C49.1992 17.3021 49.3144 17.4501 49.6434 17.4501C50.0217 17.4501 50.0217 17.4337 50.0217 15.3939C50.0217 13.3376 50.0217 13.3376 49.6269 13.3376C49.3473 13.3376 49.1828 13.4856 49.0347 13.8311C48.8044 14.4068 48.6728 14.4397 48.0806 14.0285C47.1265 13.3705 46.1559 13.206 45.0867 13.5514Z" fill="#050505"/>
<path d="M69.9263 13.7489C69.9263 14.1108 70.0744 14.2424 70.4692 14.1766C70.535 14.1601 70.7488 14.2259 70.9133 14.3246C71.2094 14.4891 71.2423 14.6865 71.2423 16.2987C71.2423 17.9437 71.0943 18.503 70.864 17.8614C70.7982 17.7298 70.4856 17.4995 70.1402 17.3679C68.1826 16.5454 66.0112 19.3749 66.6363 21.9411C67.0146 23.5203 68.0675 24.6554 69.2025 24.6718C69.7618 24.6883 70.6008 24.3264 70.9133 23.948C71.193 23.619 71.3575 23.6355 71.4562 24.0303C71.5385 24.3264 71.6865 24.3593 72.8709 24.3593C74.1869 24.3593 74.2034 24.3593 74.2034 23.948C74.2034 23.619 74.1211 23.5368 73.8086 23.5368C72.838 23.5368 72.8874 23.7671 72.8874 18.3385V13.3376H71.4069C69.9428 13.3376 69.9263 13.3376 69.9263 13.7489ZM70.4856 18.4865C71.3411 19.342 71.4398 21.9575 70.683 23.0762C70.3705 23.5532 70.2389 23.619 69.5973 23.619C68.9229 23.619 68.8406 23.5697 68.561 23.0433C68.3142 22.5662 68.2813 22.1385 68.3142 20.7073C68.3636 19.1116 68.3965 18.9142 68.7584 18.5359C69.2683 17.993 69.9757 17.9766 70.4856 18.4865Z" fill="#050505"/>
<path d="M53.7228 17.3843C52.341 17.8943 51.4691 19.2597 51.4856 20.9376C51.4856 22.122 51.5843 22.4346 52.16 23.29C52.6864 24.0631 53.7722 24.6882 54.5453 24.6882C55.7462 24.6882 57.5886 23.3887 57.5886 22.5497C57.5886 22.0397 57.2761 22.1549 56.5687 22.961C55.9436 23.6683 55.8778 23.7012 55.0388 23.7012C54.0354 23.7012 53.4103 23.3229 53.2622 22.5991C53.1964 22.3523 53.1142 21.9739 53.0484 21.7765C52.9496 21.4146 52.9496 21.4146 55.302 21.3653L57.6709 21.3159L57.6215 20.5099C57.5228 19.1116 56.6838 17.8614 55.4665 17.3514C54.7921 17.0718 54.5618 17.0718 53.7228 17.3843ZM55.5323 18.503C55.96 18.9307 56.2397 20.0164 55.9929 20.2631C55.9107 20.3454 55.2033 20.4112 54.4302 20.3783L53.0319 20.3289L53.2293 19.5064C53.5748 18.1575 54.6934 17.664 55.5323 18.503Z" fill="#050505"/>
<path d="M61.2731 17.3351C59.7926 17.9108 58.9043 19.2762 58.9043 21.0199C58.9043 22.1879 59.1511 22.8294 59.9571 23.6684C61.2731 25.0667 63.0004 25.0009 64.4316 23.5039C64.8922 23.0268 65.1554 22.6156 65.0896 22.4675C64.9909 22.2043 64.4974 22.1221 64.4974 22.3524C64.4974 22.4346 64.2342 22.7636 63.9216 23.0926C63.3788 23.652 63.2636 23.7013 62.3753 23.7013C61.306 23.7013 60.8454 23.3723 60.648 22.4675C60.5822 22.1879 60.5 21.8424 60.4506 21.6779C60.3684 21.4147 60.5493 21.3983 62.7536 21.3983H65.1554V20.7238C65.1554 19.3749 64.1519 17.9108 62.803 17.3186C62.2437 17.0883 61.9476 17.0883 61.2731 17.3351ZM62.7865 18.355C63.2143 18.6511 63.5597 19.4242 63.4775 19.9507C63.4281 20.3126 63.3459 20.329 61.9805 20.4113C60.7303 20.4771 60.5493 20.4606 60.5493 20.2303C60.5493 18.6346 61.7666 17.6312 62.7865 18.355Z" fill="#050505"/>
<path d="M76.5389 17.3352C76.2428 17.4175 75.7493 17.7794 75.4368 18.1413C74.9597 18.6512 74.861 18.898 74.861 19.4738C74.861 20.0495 74.9597 20.2798 75.4532 20.7733C75.9467 21.2997 76.2428 21.4313 77.3779 21.6781C78.8584 21.9906 79.3848 22.3525 79.2039 22.9283C79.0065 23.5863 78.7926 23.7015 77.7563 23.7015C76.5389 23.7015 76.177 23.4383 75.5684 22.1058C75.2723 21.4807 75.0749 21.2339 74.8939 21.2668C74.5485 21.3326 74.4662 21.9577 74.6143 23.3231C74.6965 24.195 74.7788 24.3595 75.0255 24.3595C75.2065 24.3595 75.4039 24.2443 75.4861 24.0798C75.6506 23.8002 75.7822 23.8331 76.5883 24.343C76.868 24.524 77.3286 24.672 77.6247 24.672C78.4472 24.6885 79.5329 24.0963 79.8948 23.4547C80.0593 23.1422 80.2567 22.879 80.3225 22.879C80.5199 22.879 80.4705 22.0893 80.2567 21.6781C79.6316 20.5759 79.0723 20.2469 77.345 19.9179C76.4567 19.7534 75.848 19.3915 75.848 19.0132C75.848 18.6183 76.6047 18.1084 77.197 18.1084C77.9537 18.1084 78.5952 18.6183 78.99 19.5396C79.2039 20.066 79.3848 20.2469 79.648 20.2469C79.977 20.2469 79.9935 20.1976 79.9277 19.0132C79.8454 17.6478 79.5987 17.1707 79.2368 17.6478C79.0065 17.9603 78.6446 18.0426 78.6446 17.7958C78.6446 17.6478 77.4437 17.1049 77.197 17.1378C77.1312 17.1543 76.8351 17.2365 76.5389 17.3352Z" fill="#050505"/>
</svg>
