<svg width="32" height="32" viewBox="0 0 32 32" fill="none" xmlns="http://www.w3.org/2000/svg">
<path d="M18 7C18 6.44772 18.4477 6 19 6H25C25.5523 6 26 6.44772 26 7C26 7.55228 25.5523 8 25 8H19C18.4477 8 18 7.55228 18 7Z" fill="#1D1D1B"/>
<path d="M18 13C18 12.4477 18.4477 12 19 12H25C25.5523 12 26 12.4477 26 13C26 13.5523 25.5523 14 25 14H19C18.4477 14 18 13.5523 18 13Z" fill="#1D1D1B"/>
<path d="M18 19C18 18.4477 18.4477 18 19 18H25C25.5523 18 26 18.4477 26 19C26 19.5523 25.5523 20 25 20H19C18.4477 20 18 19.5523 18 19Z" fill="#1D1D1B"/>
<path fill-rule="evenodd" clip-rule="evenodd" d="M15 0C13.8954 0 13 0.895431 13 2V30C13 31.1046 13.8954 32 15 32H28.7212C29.8258 32 30.7212 31.1046 30.7212 30V2C30.7212 0.895431 29.8258 0 28.7212 0H15ZM28.7212 2H15V30H28.7212V2Z" fill="#1D1D1B"/>
<path d="M11 7.03418L1.17709 11.4686C0.460567 11.7921 0 12.5053 0 13.2915V30C0 31.1046 0.895431 32 2 32H11.535C11.1947 31.4117 11 30.7287 11 30.0002L2 30L2 13.2915L11 9.22853V7.03418Z" fill="#1D1D1B"/>
<path d="M4 19C4 18.4477 4.44772 18 5 18H11C11.5523 18 12 18.4477 12 19C12 19.5523 11.5523 20 11 20H5C4.44772 20 4 19.5523 4 19Z" fill="#1D1D1B"/>
<path d="M4 25C4 24.4477 4.44772 24 5 24H11C11.5523 24 12 24.4477 12 25C12 25.5523 11.5523 26 11 26H5C4.44772 26 4 25.5523 4 25Z" fill="#1D1D1B"/>
</svg>
