<svg width="159" height="40" viewBox="0 0 159 40" fill="none" xmlns="http://www.w3.org/2000/svg">
<path d="M18.2375 28.8821H4.43039V22.0248H12.1776C13.7157 22.0248 15.0334 20.9231 15.3043 19.4087L15.63 17.5944H4.43039V10.8768H18.3535C18.6373 10.8768 18.8673 10.6468 18.8673 10.3631V6.96127C18.8673 6.67752 18.6373 6.44751 18.3535 6.44751H0.807186C0.361138 6.44751 0 6.80865 0 7.2547V32.5042C0 32.9503 0.361138 33.3114 0.807186 33.3114H18.2364C18.6824 33.3114 19.0436 32.9503 19.0436 32.5042V29.6893C19.0436 29.2433 18.6824 28.8821 18.2364 28.8821" fill="#050505"/>
<path d="M132.83 28.8821H119.023V22.0248H126.77C128.308 22.0248 129.626 20.9231 129.897 19.4087L130.222 17.5944H119.023V10.8768H132.946C133.23 10.8768 133.46 10.6468 133.46 10.3631V6.96127C133.46 6.67752 133.23 6.44751 132.946 6.44751H115.401C114.955 6.44751 114.594 6.80865 114.594 7.2547V32.5042C114.594 32.9503 114.955 33.3114 115.401 33.3114H132.83C133.276 33.3114 133.637 32.9503 133.637 32.5042V29.6893C133.637 29.2433 133.276 28.8821 132.83 28.8821Z" fill="#050505"/>
<path d="M42.7185 6.44751H39.8896C39.4435 6.44751 39.0824 6.80865 39.0824 7.2547V22.7288C39.0824 26.4186 36.0804 29.4206 32.3906 29.4206C28.7007 29.4206 25.6988 26.4186 25.6988 22.7288V7.2547C25.6988 6.80865 25.3376 6.44751 24.8916 6.44751H22.0627C21.6166 6.44751 21.2555 6.80865 21.2555 7.2547V22.7288C21.2555 28.8703 26.2512 33.865 32.3916 33.866C38.5331 33.866 43.5278 28.8703 43.5278 22.7288V7.2547C43.5278 6.80865 43.1667 6.44751 42.7206 6.44751" fill="#050505"/>
<path d="M85.1157 33.3114H77.4835C75.4284 33.3114 73.6614 31.8539 73.2702 29.8365L73.0853 28.8864H89.5128L89.3279 29.8365C88.9367 31.8539 87.1697 33.3114 85.1147 33.3114H85.1157Z" fill="#616161"/>
<path d="M146.691 10.2931C150.921 10.2931 154.363 13.7347 154.363 17.9652V21.7066C154.363 25.9371 150.921 29.3786 146.691 29.3786C142.46 29.3786 139.019 25.9371 139.019 21.7066V17.9652C139.019 13.7347 142.46 10.2931 146.692 10.2931M146.691 5.86597C139.986 5.86597 134.551 11.3013 134.551 18.006V21.6668C134.551 28.3715 139.986 33.8068 146.691 33.8068C153.395 33.8068 158.831 28.3715 158.831 21.6668V18.006C158.832 11.3013 153.396 5.86597 146.691 5.86597Z" fill="#050505"/>
<path d="M112.536 10.1717V7.25463C112.536 6.80858 112.175 6.44744 111.729 6.44744H92.6964L93.0221 8.26173C93.294 9.77614 94.6107 10.8778 96.1487 10.8778H106.66L94.4451 27.0033L83.1564 6.98592C82.7673 6.29374 82.0343 5.86597 81.24 5.86597C80.4457 5.86597 79.7127 6.29374 79.3225 6.98592L67.8489 27.3526C67.8489 27.3526 66.6848 25.7877 63.4733 21.5529C66.3162 19.9385 67.7543 17.1655 67.7156 14.4548C67.6608 10.5984 64.5288 6.44744 57.78 6.44744H47.0179C46.5718 6.44744 46.2107 6.80858 46.2107 7.25463V32.5031C46.2107 32.9491 46.5718 33.3103 47.0179 33.3103H49.8317C50.2778 33.3103 50.6389 32.9491 50.6389 32.5031V22.9566H59.2622L66.4742 32.976C66.6236 33.1856 66.8643 33.3103 67.1212 33.3103H68.8635C69.1483 33.3103 69.4116 33.1577 69.5535 32.9104L81.2432 12.4524L92.9221 32.8997C93.064 33.1469 93.3263 33.2995 93.6122 33.2995H111.728C112.174 33.2995 112.535 32.9384 112.535 32.4923V29.7172C112.535 29.2711 112.174 28.91 111.728 28.91H98.6219L112.375 10.6543C112.479 10.5145 112.536 10.3447 112.536 10.1706V10.1717ZM57.9724 18.5284H50.6411V10.8778H57.7821C61.5504 10.8778 63.2626 12.7061 63.2884 14.5182C63.3142 16.3712 61.6622 18.4134 57.9735 18.5284H57.9724Z" fill="#050505"/>
</svg>
