<svg width="100" height="40" viewBox="0 0 100 40" fill="none" xmlns="http://www.w3.org/2000/svg">
<path d="M58.3949 11.3336H61.7003V2.59465C61.7003 2.59465 61.0266 2.59465 60.3206 2.59465C59.4399 2.59465 58.727 2.74592 58.3202 3.11541C58.1985 3.22408 57.8212 3.57096 57.5256 4.0752L57.1448 3.817C55.2765 2.60856 53.0413 2 49.5881 2C39.5642 2 32.2292 10.1043 32.2292 19.9987V20.0987C32.2292 30.093 39.7076 38 49.3517 38C55.5469 38 58.9435 36.3004 62.0437 32.5299L59.8485 26.9372L59.0461 27.8561C56.3449 30.6025 53.7725 32.3299 49.5403 32.3299C43.2052 32.3299 38.3297 26.8103 38.3297 19.9978V19.8978C38.3297 13.0854 43.253 7.61704 49.5403 7.61704C53.13 7.61704 56.0763 8.89763 58.3019 11.3336H58.3949V11.3336Z" fill="black"/>
<path d="M10.3024 37.2907C10.3024 37.2907 10.3024 36.583 10.3024 35.8397C10.3024 34.9147 10.4484 34.1661 10.7962 33.7367C11.0048 33.4854 12.2906 32.6847 13.2739 32.0935V8.26394H5.87895C5.3269 9.28024 4.61227 10.5452 4.38015 10.7564C3.97501 11.1225 3.26039 11.2746 2.3797 11.2746C1.67464 11.2746 1 11.2746 1 11.2746V2.59474H31.5578V11.2746C31.5578 11.2746 30.8849 11.2746 30.179 11.2746C29.2983 11.2746 28.5854 11.1233 28.1785 10.7564C27.9455 10.5452 27.2283 9.28198 26.6736 8.26394H19.1379V32.0935C20.1316 32.6908 21.5069 33.475 21.7216 33.7367C22.0703 34.1661 22.2137 34.9138 22.2137 35.8397C22.2137 36.5821 22.2137 37.2907 22.2137 37.2907H10.3024V37.2907Z" fill="black"/>
<path d="M84.7685 37.6488H79.6157L67.9095 7.82403C66.9201 7.23112 65.583 6.40695 65.3735 6.14787C65.0266 5.72101 64.8823 4.97161 64.8823 4.04485C64.8823 3.30328 64.8823 2.59386 64.8823 2.59386H76.898C76.898 2.59386 76.898 3.30328 76.898 4.04485C76.898 4.97161 76.7528 5.72101 76.4042 6.14787C76.2155 6.38174 75.1123 7.07376 74.1716 7.64668L82.2621 29.3463L90.3073 7.6745C89.2814 7.06159 88.0182 6.27915 87.8191 6.03746C87.534 5.68363 87.5401 4.58387 87.5401 4.30132C87.5401 3.56148 87.5401 2.59473 87.5401 2.59473H99.4497C99.4497 2.59473 99.4497 3.56235 99.4497 4.30132C99.4497 4.58387 99.4575 5.68363 99.1706 6.03746C98.829 6.45476 96.4356 7.82316 96.4356 7.82316L84.7685 37.6488Z" fill="black"/>
</svg>
