<svg width="180" height="40" viewBox="0 0 180 40" fill="none" xmlns="http://www.w3.org/2000/svg">
<g clip-path="url(#clip0_849_564)">
<path d="M9.57958 14.4147V23.8044C9.50871 24.832 9.72131 25.8596 10.1819 26.7808C10.7134 27.4186 11.493 27.7729 12.3434 27.7729C12.6268 27.8084 12.804 27.9501 12.804 28.2336C12.804 28.4107 12.6623 28.517 12.4142 28.517C12.3434 28.517 12.2371 28.517 12.0953 28.517L11.1386 28.4462L9.57958 28.3399C9.43784 28.3399 9.29611 28.3399 9.08351 28.3399C8.58745 28.3399 8.16225 28.3399 7.77249 28.3753L5.00871 28.5525C4.72524 28.5879 4.51265 28.5879 4.40635 28.5879C4.15832 28.5879 4.01658 28.4816 4.01658 28.269C4.01658 28.1273 4.05202 28.021 4.15832 27.9147C4.30005 27.8438 4.47721 27.8084 4.65438 27.8084C5.22131 27.8084 5.78824 27.5603 6.14257 27.0997C6.53233 26.6037 6.7095 25.9659 6.67406 25.3635V24.7611V13.6706C6.67406 13.0328 6.31973 12.6785 5.61107 12.6785C4.47721 12.6076 3.30792 12.7493 2.2095 13.0328C1.85517 13.1391 1.5717 13.3517 1.32367 13.6351C1.07564 14.1666 0.863041 14.769 0.721309 15.3359L0.615009 15.6903C0.50871 16.0446 0.366978 16.1863 0.189813 16.1863C-0.093652 16.1863 -0.199951 16.0446 -0.199951 15.7966C-0.164518 15.4777 -0.129085 15.1588 -0.0582189 14.8399L0.0480803 13.7414L0.189813 12.643L0.260679 11.8989C0.260679 11.6509 0.473277 11.4029 0.721309 11.4029C0.756742 11.4029 0.756742 11.4029 0.792175 11.4029C0.863041 11.4029 1.00477 11.4029 1.21737 11.4383C1.64257 11.5092 2.1032 11.5092 2.67013 11.5092L5.22131 11.5446L8.23312 11.58C10.1819 11.58 12.2371 11.5092 14.4339 11.4029C14.8591 11.4029 15.1426 11.3674 15.2843 11.3674C15.7449 11.3674 15.993 11.5446 15.993 11.9344L16.0638 12.8556C16.0638 12.9974 16.0993 13.3517 16.2056 13.8477C16.241 14.2021 16.2764 14.5564 16.2764 14.9107C16.2764 15.1942 16.1701 15.3359 15.9221 15.3359C15.7449 15.3359 15.6032 15.1942 15.5323 14.8753C15.426 14.2021 15.0717 13.5997 14.5402 13.21C13.9024 12.8202 13.1583 12.643 12.3788 12.6785C11.5638 12.6076 10.7843 12.7139 10.0048 12.9619C9.72131 13.1745 9.57958 13.6351 9.57958 14.4147Z" fill="#616161"/>
<path d="M22.1937 24.584L22.3 25.8242C22.3709 26.3911 22.6189 26.8871 23.0441 27.2769C23.4693 27.6312 24.0008 27.8084 24.5678 27.773C24.9575 27.773 25.1701 27.9147 25.1701 28.1627C25.1701 28.4108 24.8866 28.5171 24.3552 28.5171C24.1071 28.5171 23.7882 28.4816 23.363 28.4462C22.4772 28.3399 21.6268 28.269 20.741 28.269C20.0678 28.269 19.43 28.3045 18.7567 28.4108C18.4733 28.4816 18.1544 28.5171 17.8709 28.5171C17.6937 28.5171 17.552 28.4108 17.5166 28.2336L17.4811 28.1273L17.8355 27.8438C18.2961 27.7021 18.7213 27.4541 19.0402 27.0643C19.2528 26.5682 19.3591 26.0368 19.3237 25.5053V24.4068V14.4856C19.3591 13.9186 19.2174 13.3517 18.9339 12.8557C18.5441 12.4659 18.0126 12.2533 17.4811 12.2179C17.1977 12.1824 16.9142 12.1116 16.6662 12.0407C16.5599 11.9698 16.489 11.8635 16.489 11.7218C16.489 11.4738 16.5953 11.3675 16.7725 11.3675C16.9851 11.4029 17.2331 11.4029 17.4457 11.4738C17.9418 11.5446 18.4378 11.5801 18.9339 11.5801C19.3945 11.5801 19.9615 11.5446 20.6701 11.5092L21.5914 11.4383C22.4418 11.3675 23.115 11.332 23.5402 11.332C23.8237 11.332 23.9654 11.4383 23.9654 11.6509C23.9654 11.7572 23.9654 11.8635 23.8945 11.9698C23.7882 12.0407 23.6819 12.0761 23.5756 12.0761C23.1504 12.1116 22.7252 12.2887 22.4418 12.5722C22.2292 12.9974 22.1583 13.4934 22.1937 13.9895V24.584Z" fill="#616161"/>
<path d="M34.7016 11.1194C36.4024 11.1903 38.0323 11.6155 39.556 12.3241C39.8394 12.4659 40.1583 12.5722 40.4772 12.6076C40.5835 12.6076 40.6898 12.5722 40.7961 12.4659L40.9379 12.3241C41.0087 12.2533 41.115 12.1824 41.2213 12.1824C41.4694 12.1824 41.5757 12.3241 41.5757 12.643V13.5289L41.5402 15.2296L41.5757 16.1155C41.6111 16.3281 41.6111 16.5761 41.6465 16.8241C41.6465 16.9304 41.6465 17.0013 41.6465 17.0367C41.6465 17.3202 41.5048 17.4265 41.2568 17.4265C41.0796 17.4265 40.9733 17.2493 40.9024 16.895C40.6898 15.7966 40.1229 14.769 39.3079 13.9895C38.1741 12.6785 36.5087 11.9698 34.7725 11.9698C33.178 11.9344 31.6544 12.6785 30.6977 13.9541C29.5993 15.5131 29.0678 17.3911 29.1741 19.269C29.1032 21.3596 29.6347 23.4501 30.7331 25.2572C31.7961 26.8871 33.0717 27.7021 34.5953 27.7021C35.1977 27.6666 35.7646 27.5603 36.3316 27.3832C36.8985 27.2415 37.43 27.0289 37.926 26.71C38.2449 26.4974 38.493 26.143 38.5993 25.7533C38.741 25.1155 38.8119 24.4777 38.7764 23.8399C38.8473 23.0958 38.6701 22.3871 38.2449 21.7848C37.678 21.3241 36.9694 21.0761 36.2253 21.147C35.9772 21.147 35.8355 21.0052 35.8355 20.7926C35.8355 20.58 35.9772 20.4383 36.2961 20.4383C36.4024 20.4383 36.5442 20.4383 36.7213 20.4737C37.5363 20.5446 38.4575 20.58 39.4851 20.58C40.2646 20.58 41.0442 20.58 41.8237 20.5092C42.1426 20.4737 42.4615 20.4383 42.7449 20.4383C43.0284 20.4383 43.2056 20.5446 43.2056 20.7572C43.2056 20.9698 43.0638 21.0761 42.7449 21.147C42.3197 21.2178 41.93 21.5013 41.7528 21.9265C41.5402 22.5997 41.4339 23.3084 41.4694 24.017C41.4694 24.3005 41.4694 24.5485 41.5048 24.832C41.5402 25.2572 41.5402 25.5407 41.5402 25.6824C41.5402 25.895 41.5048 26.0722 41.3985 26.2493C41.2213 26.4265 41.0087 26.5328 40.7607 26.6037C40.5835 26.6745 39.9103 26.958 38.7764 27.4541C37.1465 28.2336 35.3749 28.6588 33.6032 28.7296C31.5127 28.8005 29.5284 27.9855 28.1111 26.4619C26.8001 24.9029 26.056 22.7769 26.1268 20.6155C26.056 18.1352 26.9418 15.6903 28.6071 13.8478C30.1308 12.0761 32.3631 11.0485 34.7016 11.1194Z" fill="#616161"/>
<path d="M49.9023 14.2729V16.9659C49.8669 17.4619 49.9378 17.958 50.0795 18.4186C50.1858 18.6312 50.4693 18.7375 50.8945 18.7375H51.2842H51.8157H52.8787C53.7291 18.7021 54.4732 18.1706 54.7921 17.3911L55.0756 16.7887C55.1464 16.647 55.2882 16.5407 55.4653 16.5407C55.6425 16.5407 55.7488 16.647 55.7488 16.895C55.7488 16.9659 55.7488 17.143 55.7134 17.4265C55.6779 17.6391 55.6779 17.8162 55.6779 17.9934C55.6779 18.2769 55.7134 18.8792 55.7842 19.8714C55.8197 20.5092 55.8551 21.0761 55.8551 21.5367V22.1745C55.8551 22.2454 55.8551 22.3517 55.8197 22.4225C55.7842 22.4934 55.7134 22.5288 55.6071 22.4934C55.3945 22.5288 55.2527 22.3517 55.2173 22.0328C55.1464 21.4304 54.8984 20.8635 54.4732 20.4383C54.2606 20.2257 53.9771 20.084 53.6937 20.0485C53.1268 19.9777 52.5244 19.9422 51.9575 19.9777H51.1071C50.8236 19.9422 50.5401 20.0131 50.2921 20.1548C50.1149 20.3674 50.0086 20.6155 50.0086 20.8635C49.9378 21.5013 49.9378 22.1745 49.9378 22.8477V23.9462C49.9023 24.7966 50.0086 25.647 50.2212 26.4619C50.363 27.0997 50.9653 27.5249 51.6031 27.4186C54.9693 27.4186 57.1661 26.3911 58.2291 24.3359C58.3 24.2296 58.3354 24.1942 58.3709 24.1588C58.4417 24.1588 58.548 24.1588 58.6189 24.2296C58.6897 24.3005 58.7252 24.4068 58.7252 24.5131C58.7252 25.3635 58.4771 26.1785 58.052 26.8871C57.7331 27.4895 57.2724 27.9501 56.6701 28.269C55.9968 28.5879 55.2527 28.7296 54.5086 28.6942C53.9063 28.6942 53.3394 28.6588 52.737 28.5879L51.2488 28.4462C50.7173 28.4107 50.0086 28.3753 49.0874 28.3753C48.485 28.3753 47.5638 28.4107 46.3236 28.4816C45.9693 28.517 45.7567 28.517 45.5795 28.517C45.4378 28.5525 45.2961 28.4462 45.2606 28.269V28.2336C45.2606 28.0918 45.3315 27.9501 45.5441 27.8792C45.8984 27.7729 46.2527 27.5603 46.5008 27.3123C46.7134 26.9934 46.8551 26.6037 46.8905 26.2139C46.9968 25.6115 47.0323 25.0092 47.0323 24.4068V14.5918C47.1031 13.9186 46.926 13.2454 46.5716 12.7139C46.0401 12.2887 45.3669 12.0407 44.6937 12.0052C44.5165 12.0052 44.3394 11.8281 44.3394 11.6509C44.3394 11.4737 44.4811 11.3674 44.7646 11.3674C44.8354 11.3674 44.9417 11.3674 45.1543 11.4029C45.296 11.4029 45.5086 11.4029 45.7567 11.4029L46.9968 11.4383L51.7094 11.4737C54.4378 11.4737 56.1031 11.4383 56.7409 11.3674C56.8118 11.3674 56.8827 11.3674 56.9181 11.3674C57.1661 11.3674 57.2724 11.5092 57.2724 11.7926C57.2724 11.9698 57.3079 12.3241 57.3433 12.8202C57.4142 13.5288 57.4496 14.0603 57.4496 14.3792C57.4496 15.017 57.2724 15.3359 56.9535 15.3359C56.8118 15.3359 56.7055 15.1588 56.7055 14.769C56.7764 14.0603 56.422 13.3517 55.7842 12.9619C54.863 12.5367 53.8709 12.3241 52.8787 12.395H51.3551L50.5401 12.5013C50.1149 12.643 49.9023 13.0682 49.9023 13.7414V14.2729Z" fill="#616161"/>
<path d="M64.9261 23.5919C64.8552 24.6903 64.997 25.7533 65.3513 26.7808C65.7056 27.3832 66.3788 27.7375 67.0875 27.7375C67.4418 27.773 67.619 27.9147 67.619 28.1273C67.619 28.3753 67.4773 28.4816 67.1938 28.4816C67.0875 28.4816 66.9458 28.4816 66.6977 28.4462C65.9891 28.3753 65.2804 28.3753 64.6426 28.3753C64.0757 28.3753 63.5796 28.3753 63.1544 28.4108L62.1269 28.5171L61.2765 28.5879C61.0284 28.6234 60.8867 28.6234 60.7804 28.6234C60.497 28.6234 60.3198 28.5171 60.3198 28.269C60.3198 28.0919 60.4261 27.9501 60.5678 27.9147C61.0284 27.8084 61.4182 27.5604 61.7371 27.206C61.9851 26.8163 62.0914 26.3202 62.056 25.8596V24.6903V24.1942V15.2297C62.1269 14.5564 61.9851 13.8478 61.6662 13.2454C61.1702 12.6431 60.4615 12.2887 59.682 12.2533C59.3277 12.2179 59.1859 12.0407 59.1859 11.8281C59.1505 11.6509 59.2922 11.5092 59.434 11.4738C59.4694 11.4738 59.5048 11.4738 59.5048 11.4738C59.6466 11.4738 59.7883 11.4738 59.9655 11.5092C60.6741 11.5801 61.3828 11.6155 62.056 11.6155C62.9064 11.6155 63.8985 11.5801 65.1033 11.4738C66.5206 11.3675 67.4773 11.2966 68.0088 11.2966C69.4261 11.2612 70.808 11.6864 71.9418 12.5722C72.934 13.3517 73.5009 14.5564 73.5009 15.832C73.5009 16.647 73.2529 17.4265 72.7922 18.0643C72.3316 18.7375 71.6584 19.269 70.8788 19.5879C70.7017 19.6588 70.6308 19.7297 70.6308 19.836C70.6308 19.9423 70.7017 20.0486 70.7725 20.1194C70.8434 20.2257 70.9497 20.4383 71.0914 20.6864L72.1899 22.6352L73.4655 24.9029C73.7844 25.5053 74.1741 26.0368 74.6347 26.4974C74.9536 26.7808 75.4143 26.958 75.8395 26.958C76.0166 26.958 76.1938 26.958 76.371 26.9226C76.4773 26.8871 76.5481 26.8871 76.6544 26.8871C76.7962 26.8871 76.867 26.9934 76.867 27.1706C76.867 27.4186 76.5127 27.7021 75.8395 27.9856C75.2725 28.269 74.6702 28.4108 74.0324 28.4462C73.1111 28.4108 72.2253 27.9501 71.6584 27.206C70.5599 25.7179 69.6032 24.1234 68.8592 22.458C68.6111 21.8202 68.2214 21.2179 67.7607 20.7218C67.3355 20.4383 66.8395 20.2966 66.3434 20.3675H65.5639L64.997 20.4738C64.8907 20.5446 64.8198 20.7572 64.8198 21.0761L64.9261 23.5919ZM64.9261 13.8832V18.1706C64.8907 18.5249 64.9615 18.8793 65.1387 19.1627C65.4221 19.3399 65.7765 19.4108 66.1308 19.3753C67.0521 19.4108 67.9733 19.3753 68.8946 19.3045C69.2844 19.2336 69.6033 19.0564 69.8867 18.8084C70.5245 18.2415 70.8434 17.3911 70.808 16.5407C70.8788 14.2375 69.0718 12.2887 66.7332 12.2179C66.6269 12.2179 66.556 12.2179 66.4497 12.2179C66.0245 12.1824 65.5993 12.2887 65.2804 12.5722C64.997 12.962 64.8552 13.4226 64.9261 13.8832Z" fill="#616161"/>
<path d="M86.8591 11.1064C88.5599 11.1773 90.1898 11.6024 91.7134 12.3111C91.9969 12.4528 92.3158 12.5591 92.6347 12.5946C92.741 12.5946 92.8473 12.5591 92.9536 12.4528L93.0953 12.3111C93.1662 12.2402 93.2725 12.1694 93.3788 12.1694C93.6268 12.1694 93.7331 12.3111 93.7331 12.63V13.5158L93.6977 15.2166L93.7331 16.1024C93.7331 16.315 93.7686 16.5631 93.804 16.8111C93.804 16.9174 93.804 16.9883 93.804 17.0237C93.804 17.3072 93.6623 17.4135 93.4142 17.4135C93.2371 17.4135 93.1308 17.2363 93.0599 16.882C92.8473 15.7836 92.2804 14.756 91.4654 13.9765C90.3316 12.6654 88.6662 11.9568 86.93 11.9568C85.3355 11.9213 83.8119 12.6654 82.8552 13.941C81.7568 15.5001 81.2253 17.378 81.3316 19.256C81.2607 21.3465 81.7922 23.4371 82.8906 25.2442C83.9536 26.8741 85.2292 27.6891 86.7528 27.6891C87.3552 27.6536 87.9221 27.5473 88.489 27.3702C89.056 27.2284 89.5875 27.0158 90.0835 26.6969C90.4024 26.4843 90.6505 26.13 90.7568 25.7402C90.8985 25.1024 90.9694 24.4647 90.9339 23.8269C91.0048 23.0828 90.8276 22.3741 90.4024 21.7717C89.8355 21.3111 89.1268 21.0631 88.3827 21.1339C88.1347 21.1339 87.993 20.9922 87.993 20.7796C87.993 20.567 88.1347 20.4253 88.4536 20.4253C88.5599 20.4253 88.7016 20.4253 88.8788 20.4607C89.6938 20.5316 90.615 20.567 91.6426 20.567C92.4221 20.567 93.2016 20.567 93.9812 20.4961C94.3001 20.4607 94.619 20.4253 94.9024 20.4253C95.2213 20.4253 95.3631 20.5316 95.3631 20.7442C95.3631 20.9568 95.2213 21.0631 94.9024 21.1339C94.4772 21.2048 94.0875 21.4883 93.9103 21.9135C93.6977 22.5867 93.5914 23.2954 93.6268 24.004C93.6268 24.2875 93.6268 24.5355 93.6623 24.819C93.6977 25.2442 93.6977 25.5276 93.6977 25.6694C93.6977 25.882 93.6623 26.0591 93.556 26.2363C93.3788 26.4135 93.1662 26.5198 92.9182 26.5906C92.741 26.6615 92.0678 26.945 90.9339 27.441C89.304 28.2206 87.5323 28.6458 85.7253 28.7166C83.6347 28.7875 81.6505 27.9725 80.2331 26.4489C78.7804 24.8544 78.0008 22.7284 78.1071 20.567C78.0363 18.0867 78.9221 15.6418 80.5875 13.7993C82.2528 12.0631 84.5205 11.071 86.8591 11.1064Z" fill="#050505"/>
<path d="M102.06 24.5355C102.06 26.0946 102.237 26.945 102.627 27.1576C103.017 27.2993 103.442 27.3347 103.832 27.3347C106.631 27.3347 108.65 26.5198 109.82 24.8544C110.174 24.3584 110.422 24.1103 110.493 24.1103C110.635 24.1103 110.706 24.2875 110.706 24.6064C110.706 25.634 110.351 26.6615 109.678 27.441C109.076 28.1851 108.154 28.5749 107.198 28.5395C106.985 28.5395 106.595 28.504 106.028 28.4686L104.54 28.3977L103.194 28.3269C102.733 28.2914 102.202 28.2914 101.635 28.2914C100.607 28.2914 99.5442 28.3623 98.5166 28.4686C98.1623 28.504 97.9497 28.5395 97.8434 28.5395C97.5954 28.5395 97.4891 28.4332 97.4891 28.2206C97.4891 28.0788 97.5954 27.9725 97.808 27.9017C98.304 27.7954 98.6938 27.4765 98.9064 27.0513C99.1544 26.3781 99.2607 25.6694 99.2253 24.9607V14.508C99.2253 13.197 98.6584 12.4174 97.56 12.2403L96.7804 12.134C96.4615 12.0985 96.3198 11.9568 96.3198 11.7442C96.2844 11.567 96.4261 11.3899 96.6033 11.3544C96.6387 11.3544 96.6741 11.3544 96.7096 11.3544C96.8159 11.3544 96.9576 11.3544 97.0639 11.3899C97.1702 11.3899 97.3474 11.4253 97.56 11.4253L98.0915 11.4607C98.5875 11.4962 98.9773 11.5316 99.2253 11.5316C99.8631 11.4962 100.501 11.4607 101.139 11.3899C101.812 11.319 102.45 11.2836 103.123 11.2836C103.619 11.2836 103.867 11.3899 103.867 11.6379C103.867 11.8505 103.69 11.9568 103.336 11.9568C102.485 12.0277 102.06 12.5946 102.06 13.693V24.5355Z" fill="#050505"/>
<path d="M120.91 11.0709C123.213 10.9646 125.481 11.7795 127.182 13.3386C128.776 14.8976 129.662 17.0591 129.556 19.2914C129.627 21.7717 128.741 24.2165 127.076 26.0591C125.481 27.8662 123.284 28.7874 120.45 28.7874C118.076 28.8937 115.737 28.0433 114.001 26.4134C112.336 24.748 111.485 22.4449 111.591 20.1063C111.591 18.9725 111.804 17.8032 112.194 16.7402C112.973 14.4725 114.71 12.7008 116.906 11.8504C118.217 11.3189 119.564 11.0709 120.91 11.0709ZM119.989 12.0276C118.465 11.9567 117.013 12.6654 116.091 13.8701C115.135 15.1102 114.674 16.8465 114.674 19.0433C114.568 21.311 115.206 23.5079 116.446 25.3858C117.473 26.9449 119.174 27.8662 121.052 27.8307C122.682 27.8662 124.206 27.1221 125.127 25.811C126.225 24.2165 126.757 22.3386 126.65 20.3898C126.65 19.0788 126.402 17.8032 125.942 16.563C125.552 15.4291 124.914 14.437 124.064 13.5866C122.965 12.5945 121.513 11.9921 119.989 12.0276Z" fill="#050505"/>
<path d="M133.524 15.0039C133.524 13.3386 132.851 12.4173 131.469 12.2402L130.902 12.1693C130.725 12.1693 130.619 12.0276 130.619 11.815C130.619 11.5669 130.725 11.4252 130.973 11.4252H131.292L132.213 11.4606C132.993 11.4961 133.489 11.4961 133.702 11.4961C134.304 11.4961 135.402 11.4252 136.961 11.2835C137.954 11.2126 138.768 11.1417 139.442 11.1417C140.93 11.0709 142.418 11.4606 143.694 12.2756C144.721 12.9488 145.324 14.0827 145.288 15.3228C145.359 16.6693 144.544 17.9095 143.304 18.3701C142.985 18.5118 142.843 18.6181 142.843 18.7244C142.843 18.8661 142.985 18.9724 143.339 19.0079C144.296 19.1496 145.182 19.6457 145.784 20.3543C146.387 21.1339 146.706 22.0906 146.67 23.0472C146.741 24.5354 146.139 25.9528 145.005 26.9449C143.729 27.937 142.17 28.4685 140.54 28.3622L138.024 28.2913L136.076 28.2559C134.977 28.2559 133.914 28.2913 132.851 28.3976C132.603 28.4331 132.32 28.4331 132.072 28.4331C131.824 28.4331 131.682 28.3268 131.682 28.1142C131.682 27.937 131.788 27.7953 132.001 27.7598C132.993 27.5827 133.489 26.7323 133.489 25.1732L133.524 15.0039ZM136.394 13.941V17.5197C136.359 17.9095 136.465 18.2638 136.749 18.5472C137.103 18.7598 137.528 18.8661 137.954 18.8307L139.69 18.8661L140.469 18.8307C141.887 18.6535 142.595 17.8032 142.595 16.2795C142.631 15.1457 142.206 14.0827 141.426 13.3032C140.54 12.4882 139.442 12.0984 138.272 12.1339C137.741 12.063 137.209 12.2047 136.749 12.4882C136.465 12.9134 136.324 13.4095 136.394 13.941ZM136.394 22.2323V24.2874L136.43 24.748L136.501 25.811C136.607 27.0158 137.564 27.6181 139.335 27.6181C141.107 27.6181 142.312 27.1929 142.95 26.3425C143.481 25.5984 143.765 24.7126 143.729 23.7913C143.729 21.8425 142.843 20.6378 141.107 20.1772C139.973 19.8937 138.839 19.7874 137.706 19.7874C137.103 19.7874 136.713 19.9291 136.572 20.2126C136.43 20.8504 136.324 21.5591 136.394 22.2323Z" fill="#050505"/>
<path d="M157.194 12.8071L162.863 25.811C163.076 26.378 163.43 26.874 163.855 27.2638C164.28 27.6181 164.812 27.8307 165.343 27.9016C165.485 27.937 165.556 28.0433 165.556 28.2559C165.556 28.4685 165.45 28.6102 165.272 28.5748C165.131 28.5748 164.954 28.5394 164.812 28.5039C163.784 28.3268 162.757 28.2559 161.729 28.2913C160.737 28.2559 159.78 28.3268 158.824 28.5039C158.717 28.5394 158.611 28.5394 158.505 28.5748C158.328 28.6102 158.186 28.4685 158.15 28.2913C158.15 28.2559 158.15 28.2205 158.15 28.2205C158.15 28.1142 158.257 28.0079 158.434 27.937C158.824 27.8307 159.142 27.6181 159.426 27.2992C159.674 27.0512 159.816 26.6968 159.816 26.3425C159.603 25.2795 159.249 24.252 158.753 23.2598C158.54 22.7638 158.292 22.5157 158.009 22.4449C157.052 22.3386 156.095 22.3031 155.139 22.3386H153.438L152.339 22.5512C152.02 22.6929 151.702 23.2244 151.276 24.1811L150.887 25.1378C150.78 25.3858 150.709 25.6693 150.709 25.9528C150.709 26.9803 151.454 27.6181 152.906 27.7598C153.225 27.7953 153.367 27.937 153.367 28.1142C153.367 28.3268 153.19 28.4331 152.906 28.4331C152.694 28.4331 152.481 28.3976 152.268 28.3622C151.772 28.2559 151.276 28.2205 150.78 28.185C150.391 28.185 149.753 28.2205 148.867 28.3268C148.229 28.3976 147.804 28.4331 147.662 28.4331C147.414 28.4331 147.308 28.3268 147.308 28.1142C147.308 27.937 147.414 27.8307 147.662 27.7244C148.087 27.5827 148.477 27.3346 148.725 26.9449C149.186 26.2008 149.611 25.3858 149.93 24.5709L153.331 16.7402C153.615 16.1024 153.792 15.6772 153.898 15.4646L155.068 13.0906L155.67 11.9213V11.9567C155.954 11.3189 156.131 11 156.202 11C156.343 11 156.556 11.3543 156.875 12.0276L157.194 12.8071ZM157.654 20.6024L156.024 16.811C155.635 15.8898 155.351 15.4646 155.209 15.4646C155.103 15.4646 154.926 15.748 154.678 16.3504L154.43 16.8819L152.977 20.2126L152.835 20.5315C152.765 20.6378 152.765 20.7441 152.729 20.8504C152.729 21.1339 153.013 21.2756 153.615 21.2756H157.3C157.619 21.2756 157.761 21.2047 157.761 21.0276C157.761 20.9567 157.725 20.8858 157.69 20.815L157.654 20.6024Z" fill="#050505"/>
<path d="M171.154 24.5355C171.154 26.0946 171.331 26.945 171.721 27.1576C172.111 27.2993 172.536 27.3347 172.926 27.3347C175.725 27.3347 177.745 26.5198 178.914 24.8544C179.268 24.3584 179.517 24.1103 179.587 24.1103C179.729 24.1103 179.8 24.2875 179.8 24.6064C179.8 25.634 179.446 26.6615 178.772 27.441C178.17 28.1851 177.249 28.5749 176.292 28.5395C176.08 28.5395 175.69 28.504 175.123 28.4686L173.635 28.3977L172.288 28.3269C171.828 28.2914 171.296 28.2914 170.729 28.2914C169.702 28.2914 168.639 28.3623 167.611 28.4686C167.257 28.504 167.044 28.5395 166.938 28.5395C166.69 28.5395 166.583 28.4332 166.583 28.2206C166.583 28.0788 166.69 27.9725 166.902 27.9017C167.363 27.7954 167.788 27.4765 168.001 27.0513C168.249 26.3781 168.355 25.6694 168.32 24.9607V14.508C168.32 13.197 167.753 12.4174 166.654 12.2403L165.875 12.134C165.556 12.0985 165.414 11.9568 165.414 11.7442C165.379 11.567 165.52 11.3899 165.698 11.3544C165.733 11.3544 165.768 11.3544 165.804 11.3544C165.91 11.3544 166.052 11.3544 166.158 11.3899C166.265 11.3899 166.442 11.4253 166.654 11.4253L167.186 11.4607C167.682 11.4962 168.072 11.5316 168.32 11.5316C168.709 11.5316 169.347 11.4962 170.233 11.3899C170.906 11.319 171.544 11.2836 172.217 11.2836C172.713 11.2836 172.961 11.3899 172.961 11.6379C172.961 11.8505 172.784 11.9568 172.43 11.9568C171.58 12.0277 171.19 12.5946 171.19 13.693L171.154 24.5355Z" fill="#050505"/>
</g>
<defs>
<clipPath id="clip0_849_564">
<rect width="180" height="40" fill="white"/>
</clipPath>
</defs>
</svg>
