<svg width="146" height="40" viewBox="0 0 146 40" fill="none" xmlns="http://www.w3.org/2000/svg">
<g clip-path="url(#clip0_838_548)">
<path d="M62.5738 27.7299C63.149 27.728 63.7182 27.6123 64.2488 27.3896C64.7795 27.1669 65.2612 26.8414 65.6666 26.4318C66.0719 26.0222 66.3929 25.5364 66.6113 25.0023C66.8296 24.4682 66.941 23.8961 66.939 23.3188C66.9371 22.7414 66.8219 22.1701 66.6 21.6375C66.3781 21.1048 66.0539 20.6212 65.6458 20.2144C65.2377 19.8075 64.7538 19.4853 64.2217 19.2661C63.6896 19.047 63.1196 18.9352 62.5445 18.9371C61.3829 18.941 60.2704 19.408 59.4517 20.2352C58.6331 21.0625 58.1754 22.1822 58.1793 23.3482C58.1832 24.5142 58.6484 25.6309 59.4725 26.4526C60.2966 27.2744 61.4122 27.7338 62.5738 27.7299ZM61.957 14.0404C64.591 14.0404 66.2556 14.8336 67.225 16.4878V14.6616H72.1404V32.0024H67.225V30.1409C66.3927 31.796 64.6203 32.5882 61.8199 32.5882C56.5813 32.5882 52.9779 28.7963 52.9779 23.3129C52.9779 17.8648 56.689 14.0365 61.957 14.0365M78.0743 8.89902H83.3031V31.9965H78.0743V8.90492V8.89902ZM86.9456 14.6587H92.3507L95.7093 25.485L99.0679 14.6577H104.483L98.2062 32.0024H93.183L86.9456 14.6587ZM119.866 21.4857C119.67 20.5968 119.165 19.8068 118.442 19.2572C117.719 18.7075 116.825 18.4342 115.92 18.486C115.016 18.4292 114.123 18.7012 113.404 19.2523C112.684 19.8033 112.187 20.5963 112.003 21.4857H119.866ZM115.88 14.0719C117.112 14.0604 118.333 14.2998 119.47 14.7757C120.607 15.2515 121.636 15.9539 122.494 16.8404C123.353 17.7269 124.023 18.779 124.465 19.933C124.907 21.0871 125.111 22.3192 125.065 23.5546C125.075 24.0302 125.029 24.5052 124.928 24.97H111.895C112.002 25.8947 112.455 26.7442 113.162 27.3464C113.869 27.9486 114.778 28.2585 115.704 28.2135C116.306 28.2443 116.906 28.1363 117.46 27.8978C118.013 27.6592 118.504 27.2965 118.896 26.8374L119.141 26.5947H124.478C122.852 30.3532 119.689 32.5902 115.949 32.5902C113.503 32.5993 111.153 31.6326 109.417 29.9027C108.557 29.0462 107.874 28.028 107.406 26.9065C106.938 25.7849 106.695 24.5818 106.691 23.3659C106.686 22.1501 106.92 20.9452 107.38 19.8202C107.839 18.6951 108.515 17.6719 109.368 16.809C111.092 15.0662 113.434 14.081 115.88 14.0719ZM129.853 14.6626H134.769V16.4907C135.276 15.6921 135.988 15.0459 136.831 14.6208C137.674 14.1956 138.616 14.0073 139.557 14.0758C141.294 14.0326 142.981 14.6626 144.267 15.8352C145.579 17.0765 146 18.4221 146 21.182V32.0024H140.771V22.557C140.868 21.6705 140.683 20.7761 140.242 20.0016C139.989 19.6555 139.654 19.3772 139.268 19.1909C138.883 19.0047 138.457 18.9162 138.029 18.9332C137.553 18.9208 137.081 19.024 136.653 19.2342C136.225 19.4443 135.854 19.7551 135.572 20.1401C135.153 20.7813 134.979 21.5527 135.082 22.3123V32.0034H129.853V14.6626ZM22.2861 11.9753C22.182 11.4006 22.1069 10.8209 22.0609 10.2386C21.3853 9.91555 20.739 9.61086 20.1222 9.32452C19.7314 10.7311 19.8175 12.2282 20.3669 13.5804C20.9349 14.9859 20.7586 17.8578 19.9753 20.6718C19.5815 21.8915 18.9893 23.0373 18.2225 24.0627C18.4771 24.4244 18.7905 24.8608 19.1626 25.3601C20.4193 23.7007 21.3649 21.8256 21.9532 19.8265C22.7685 17.288 22.8836 14.5752 22.2861 11.9763M32.4207 15.2709L30.4427 14.3136C29.7083 15.037 29.0523 15.6208 28.6508 15.9707C27.0058 18.3178 26.5358 18.4928 26.8099 17.0126C27.2783 15.7357 27.6611 14.4289 27.9556 13.1007C27.3779 12.8157 26.8002 12.5346 26.2322 12.2584C25.8699 14.1101 25.4881 15.8243 25.2531 16.7894C24.8418 18.539 25.9874 21.2782 20.3865 26.9563C20.5726 27.1971 20.7684 27.4477 20.9838 27.7033C21.1013 27.8163 21.2286 27.9323 21.3559 28.0473C23.1968 25.9508 25.3999 23.3688 27.2604 21.0925C28.8858 19.1169 30.8148 17.1993 32.4207 15.2709ZM33.3509 20.6512C34.1734 19.2221 34.9274 17.9286 35.554 16.7718C34.8882 16.4553 34.193 16.1231 33.5173 15.7958C32.7204 16.994 32.0633 18.2801 31.559 19.629C31.3338 20.3602 29.8062 22.8371 26.242 26.2142C25.0866 27.315 23.8724 28.406 22.7757 29.4577C23.0205 29.7132 23.2653 29.9708 23.5101 30.2302C24.3256 29.5262 25.1788 28.8673 26.0658 28.2566C28.2885 26.4383 31.6863 23.531 33.3509 20.6541M3.56422 19.0127C3.54463 19.0501 3.51526 19.0894 3.49567 19.1307C3.82272 20.2777 3.95513 21.4719 3.88735 22.6631C3.64255 25.4997 4.22027 28.18 4.82736 27.4949C5.42945 26.1169 5.89517 24.6829 6.21779 23.2135C6.34509 21.7942 5.16028 18.7316 4.83715 15.7574C4.2986 17.1698 3.87755 18.3856 3.56422 19.0127ZM32.685 28.1043L32.8907 27.8733C30.2211 29.0698 27.6759 30.5283 25.2922 32.2274C25.6937 32.6933 26.0756 33.1582 26.4477 33.6162C27.0476 33.1304 27.7015 32.7159 28.3962 32.3808C29.0976 31.999 29.76 31.5493 30.3742 31.0382C31.0932 30.0206 31.8646 29.0413 32.685 28.1043ZM2.28149 23.0818C2.30892 22.6627 2.27928 22.2417 2.19337 21.8306C1.32695 23.3611 0.593133 24.9635 0 26.6201C0.179151 27.6676 0.467981 28.6932 0.861681 29.6798C1.01535 30.2762 1.10399 30.8875 1.12606 31.5031C1.32099 31.7836 1.53016 32.0539 1.75273 32.3129C2.21055 32.8982 2.87825 33.2806 3.61317 33.3784C3.65234 32.9715 3.67193 32.5449 3.69151 32.1006C3.7013 31.8913 3.72089 31.678 3.74047 31.4647C3.51634 30.1824 3.19889 28.9183 2.79066 27.6826C2.20372 26.2253 2.02757 24.6339 2.28149 23.0828M15.1088 11.0524C14.3156 13.4732 14.1492 14.9367 14.3744 18.707C14.5996 22.4773 13.8652 23.7718 12.8468 24.8402C12.2332 25.4855 11.7303 26.2285 11.3585 27.0388C12.5919 26.24 13.8776 25.5255 15.2067 24.9001C16.3325 21.9686 16.9485 18.8648 17.0279 15.724C16.8466 14.2026 16.9228 12.6614 17.2532 11.1654C17.5089 10.2243 17.7116 9.26937 17.8602 8.30528C16.9496 7.91213 16.1761 7.59958 15.5592 7.39121C15.625 8.62904 15.4725 9.86881 15.1088 11.0534M37.1795 22.15C37.9334 20.9509 38.0509 19.454 38.6384 18.2038C37.8943 17.8696 37.6984 17.7762 36.9151 17.4175C35.2309 20.0713 33.0277 23.7541 32.8123 25.137C34.3579 24.283 35.8201 23.2849 37.1795 22.1559M11.8187 11.3679C13.3364 9.45328 13.0721 4.69912 13.4735 1.77212C13.5466 1.25907 13.6612 0.752855 13.8162 0.258496L13.7869 0C12.5738 0.970538 11.4196 2.01293 10.3304 3.12161L9.72326 2.3127L9.48826 2.60167L9.33159 6.06531C9.33159 6.06531 10.2912 4.94877 10.9179 4.30302C10.9211 4.30209 10.9245 4.30209 10.9277 4.30302C13.1896 2.21933 9.7918 7.34206 8.38178 10.7192C7.89848 11.9446 7.63973 13.2475 7.61802 14.5652C7.58342 15.3221 7.61619 16.0806 7.71594 16.8317V16.8641C7.87274 17.9899 8.13502 19.0982 8.49929 20.1745C8.76169 20.9642 8.86648 21.7981 8.80767 22.6285C8.74887 23.4589 8.52762 24.2696 8.15657 25.0141C7.30358 26.374 6.78038 27.9159 6.62905 29.5157C6.64248 30.3763 6.60323 31.237 6.51155 32.0928C7.10526 31.5137 7.63391 30.871 8.08803 30.1762C8.51949 29.5478 9.01862 28.969 9.57638 28.4503C9.56659 27.4497 9.40993 25.9439 10.301 24.9561C11.3193 23.8308 11.0549 20.8153 10.9472 18.5675C10.8395 16.3196 10.301 13.2973 11.8187 11.3679ZM31.0302 39.2442C31.8136 33.9996 36.0828 29.8744 37.0424 28.407C38.0803 27.2944 41.8893 22.8046 39.3435 18.2834C39.2357 19.8855 39.7155 22.8439 36.6311 26.2103C30.5798 32.0269 29.6398 37.5428 29.6398 37.5428L30.8931 40L31.0302 39.2442Z" fill="black"/>
</g>
<defs>
<clipPath id="clip0_838_548">
<rect width="146" height="40" fill="white"/>
</clipPath>
</defs>
</svg>
