<svg width="117" height="40" viewBox="0 0 117 40" fill="none" xmlns="http://www.w3.org/2000/svg">
<g clip-path="url(#clip0_838_617)">
<path d="M22.9629 31.8129C24.9123 31.8129 25.9454 32.6706 25.9454 34.4055C25.9454 36.1404 24.9123 36.9981 22.9629 36.9981H20.8967V39.883H19.4932V31.8129H22.9629ZM22.9045 35.77C23.9961 35.77 24.4834 35.3411 24.4834 34.4639C24.4834 33.6062 23.9961 33.1579 22.9045 33.1579H20.8967V35.7505H22.9045V35.77ZM34.269 38.3821H30.1559L29.5127 39.9025H27.9922L31.5205 31.8324H32.924L36.4912 39.9025H34.9123L34.269 38.3821ZM32.2222 33.5088L30.7017 37.1345H33.7817L32.2222 33.5088ZM39.8051 39.883V31.8129H43.3723C45.3216 31.8129 46.3548 32.6706 46.3548 34.3665C46.3548 35.6725 45.7505 36.4717 44.5614 36.8031L46.5692 39.883H44.8343L43.0409 36.9006H41.2475V39.883H39.8051ZM43.3138 35.6725C44.347 35.6725 44.8343 35.2437 44.8343 34.425C44.8343 33.5673 44.347 33.1774 43.3138 33.1774H41.2475V35.6725H43.3138ZM51.9298 39.883V33.1189H49.3762V31.8129H55.8674V33.1189H53.3138V39.883H51.9298ZM64.6589 39.883L60.7017 33.3918V39.883H59.2982V31.8129H61.306L64.9902 37.8752V31.8129H66.3937V39.883H64.6589ZM75.653 35.2242V36.4717H72.0273V38.577H76.5302V39.883H70.5653V31.8129H76.5302V33.1189H72.0273V35.1852H75.653V35.2242ZM80.2534 39.883V31.8129H83.8206C85.77 31.8129 86.8031 32.6706 86.8031 34.3665C86.8031 35.6725 86.1988 36.4717 85.0097 36.8031L87.0175 39.883H85.2826L83.4893 36.9006H81.6959V39.883H80.2534ZM83.7622 35.6725C84.7953 35.6725 85.2826 35.2437 85.2826 34.425C85.2826 33.5673 84.7953 33.1774 83.7622 33.1774H81.6959V35.6725H83.7622ZM95.9454 32.3587V33.8791H95.8869C95.3411 33.3333 94.4249 33.0214 93.3918 33.0214C92.3587 33.0214 91.7154 33.4503 91.7154 34.1521C91.7154 34.7563 92.1442 35.0098 93.5088 35.1267C95.6725 35.3411 96.4327 36.1014 96.4327 37.5634C96.4327 39.0838 95.2436 40 93.2943 40C91.9883 40 90.9162 39.7271 90.2534 39.2398V37.6608H90.3119C91.0136 38.3041 92.0468 38.694 93.2358 38.694C94.3665 38.694 94.9707 38.3236 94.9707 37.5634C94.9707 36.9591 94.5419 36.6472 93.0799 36.4717C90.9746 36.2573 90.2144 35.5556 90.2144 34.1521C90.2144 32.5731 91.4035 31.6569 93.3528 31.6569C94.4834 31.7154 95.4581 31.9883 95.9454 32.3587Z" fill="#050505"/>
<path d="M22.0858 1.07212H24.8538V14.8733H24.7953L14.8928 0.682261H9.90253H7.85575H0V1.05263H2.76803V21.462H0V21.8908H9.90253H13.8012V21.462H11.0916V2.78752H11.1501L24.5224 21.9493H25.3411V1.07212H28.0507V0.701756H22.0858C22.0858 0.682262 22.0858 1.07212 22.0858 1.07212ZM10.6043 21.54H7.85575H7.154V1.07212H7.85575H9.92203H10.6238C10.6043 1.07212 10.6043 21.54 10.6043 21.54ZM43.5283 12.7096C43.8986 13.4113 44.0741 14.23 44.0741 15.2632C44.0741 16.2378 43.8596 17.2125 43.4698 18.0702C43.0994 18.9864 42.4951 19.7466 41.7349 20.3899C40.9747 21.0916 40.0585 21.6374 39.0838 22.0078C37.9922 22.4366 36.8616 22.6121 35.6725 22.6121C35.0292 22.6121 34.425 22.5536 33.8402 22.4561C33.2359 22.3392 32.6511 22.1832 32.1053 22.0858C31.5595 21.9688 31.0721 21.8129 30.7018 21.7154C30.3704 21.5984 30.0975 21.5595 29.7856 21.5595C29.5711 21.5595 29.3567 21.6179 29.1813 21.7154C29.0253 21.8713 28.9084 22.0468 28.8499 22.2612H28.3626V15.4386H28.7914C28.8499 15.7115 28.9084 15.9844 29.0058 16.4133C29.1228 16.8421 29.2788 17.271 29.4347 17.7193C29.6491 18.2066 29.8635 18.694 30.1365 19.1228C30.4678 19.6101 30.7797 20.039 31.2281 20.4678C31.5984 20.8967 32.0858 21.2281 32.5731 21.5595C32.9435 21.7739 33.3918 21.9298 33.8207 22.1053C34.191 22.2222 34.5809 22.2612 34.9513 22.2612C35.3216 22.2612 35.653 22.2612 35.9259 22.2612C37.0175 22.2612 37.8752 22.1053 38.577 21.7739C39.2203 21.501 39.7661 21.0721 40.1949 20.5263C40.5653 20.039 40.8967 19.4932 41.0526 18.9474C41.2086 18.5185 41.2671 18.0312 41.2671 17.5439C41.2671 16.9006 41.1111 16.2378 40.7212 15.7115C40.3509 15.2242 39.8635 14.7953 39.3177 14.4639C38.6745 14.1326 38.0117 13.8596 37.3099 13.6452L34.9903 12.9435C34.23 12.729 33.4113 12.4561 32.6706 12.1248C31.9688 11.7934 31.2671 11.423 30.6628 10.8772C30.0585 10.3899 29.5711 9.74659 29.2593 9.04483C28.8889 8.2846 28.7134 7.4269 28.7134 6.27681C28.7134 5.45809 28.8694 4.65887 29.2593 3.95712C29.6296 3.19688 30.117 2.49513 30.7797 1.94932C31.4815 1.34503 32.2417 0.8577 33.0994 0.54581C34.0156 0.175439 35.0487 0 36.0234 0C36.6277 0 37.2125 0.0584807 37.7583 0.214426C38.2456 0.331385 38.7329 0.487329 39.1033 0.584795C39.4737 0.701754 39.8051 0.857702 40.1364 0.955167C40.4094 1.07213 40.6823 1.11111 40.9552 1.11111C41.2281 1.11111 41.4425 1.05263 41.501 0.955167C41.6179 0.799222 41.7154 0.623783 41.7739 0.467838H42.2612V6.25731H41.9103C41.6959 5.55556 41.423 4.8538 41.1501 4.15205C40.8772 3.50877 40.5458 2.846 40.117 2.26121C39.6881 1.7154 39.1423 1.22807 38.499 0.916182C37.8557 0.584798 37.037 0.428852 36.0624 0.428852C35.3606 0.428852 34.6004 0.545811 33.9571 0.760236C33.3528 0.974661 32.8655 1.24756 32.3782 1.61793C32.0078 1.94932 31.6179 2.37817 31.4035 2.8655C31.1891 3.29435 31.0721 3.78168 31.0721 4.21053C31.0721 4.8538 31.2281 5.45809 31.6764 6.0039C32.0468 6.49123 32.5926 6.92008 33.1384 7.19298C33.7817 7.56335 34.4834 7.83626 35.2047 8.05069C35.9649 8.32359 36.7836 8.53801 37.5828 8.81092C38.3821 9.08382 39.2008 9.35673 39.961 9.66862C40.7212 9.94152 41.423 10.3704 42.0273 10.8577C42.729 11.4035 43.2164 12.0078 43.5283 12.7096ZM44.4639 0.682261H54.3665V1.05263H51.5984V21.462H54.3665V21.8908H44.4639V21.462H47.232V1.07212H44.4639V0.682261ZM75.9064 14.5029H74.0156V21.4815H73.4698C73.4698 21.2671 73.3138 21.0526 73.1384 20.9357C72.924 20.8187 72.7095 20.7797 72.4951 20.7797C72.0078 20.7797 71.5789 20.8967 71.1501 21.0526L69.8051 21.6959C69.2593 21.9688 68.6745 22.1248 68.1287 22.3392C67.3684 22.5536 66.6082 22.6706 65.809 22.6121C64.4055 22.6121 62.9435 22.3392 61.6374 21.7544C60.3314 21.2086 59.1423 20.4094 58.1092 19.3762C57.076 18.3431 56.2768 17.154 55.6725 15.809C54.4249 12.885 54.4834 9.59064 55.7895 6.66667C56.4327 5.32164 57.3099 4.11306 58.3821 3.09942C59.4152 2.12476 60.6043 1.36452 61.9493 0.818716C63.1969 0.272907 64.5029 0 65.7895 0C66.3938 0 66.9201 0.0584801 67.5244 0.155946C68.0702 0.272905 68.616 0.428852 69.0448 0.526318C69.5322 0.643277 69.961 0.799221 70.2924 0.896687C70.6238 1.01365 70.8967 1.05263 71.2086 1.05263C71.423 1.05263 71.6374 0.994153 71.8129 0.896687C71.9688 0.740742 72.0858 0.565303 72.1442 0.409358H72.6316V6.62768H72.2027C71.7154 4.61988 70.8967 3.09942 69.883 1.96881C68.8499 0.877194 67.5049 0.292398 65.77 0.350878C64.4249 0.350878 63.3333 0.623782 62.4756 1.16959C61.6569 1.7154 61.0136 2.41715 60.5848 3.27485C60.0975 4.19103 59.8246 5.22417 59.7271 6.25731C59.5711 7.38791 59.5127 8.47954 59.5127 9.61014V12.2612C59.5127 13.8402 59.6296 15.3996 59.883 16.9201C60.0975 18.1676 60.4873 19.2008 60.9747 19.961C61.462 20.7212 62.1053 21.2671 62.924 21.6374C63.8401 22.0078 64.8148 22.1832 65.7895 22.1248C66.7056 22.1248 67.4074 21.9688 67.9532 21.6374C68.499 21.306 68.9279 20.8187 69.2008 20.2924C69.5322 19.6491 69.6881 18.9474 69.7466 18.2261C69.8051 17.4074 69.8635 16.5497 69.8635 15.6335V14.5029H66.8226V14.0741H75.9259V14.5029H75.9064ZM116.959 0.682261V6.19883H116.589C116.374 5.34113 115.984 4.46394 115.614 3.64523C115.283 3.04094 114.912 2.51462 114.366 2.12476C113.938 1.75439 113.392 1.48148 112.788 1.36452C112.144 1.20858 111.481 1.1501 110.838 1.1501H109.747V21.5595H112.515V21.9883H102.651V21.5595H105.419V1.09162H104.327C103.684 1.09162 102.982 1.1501 102.378 1.30605C101.774 1.46199 101.287 1.73489 100.799 2.06628C100.312 2.49513 99.883 3.04094 99.5517 3.58675C99.1228 4.40546 98.7914 5.26316 98.577 6.14035H98.2066V1.05263H95.7115V21.462H98.5185V21.8908H88.499V21.462H91.306V11.2865H82.4756V21.5205H85.2826V21.9493H75.2047V21.5205H78.0117V1.05263H75.2047V0.682261H85.2242V1.05263H82.4171V10.8577H91.2476V1.05263H88.4405V0.682261H98.46H116.959Z" fill="#262626"/>
</g>
<defs>
<clipPath id="clip0_838_617">
<rect width="117" height="40" fill="white"/>
</clipPath>
</defs>
</svg>
