<svg width="132" height="40" viewBox="0 0 132 40" fill="none" xmlns="http://www.w3.org/2000/svg">
<path d="M7.41632 38L0 2H5.25323L10.764 30.9442L23.3305 2H29.0988L12.515 38H7.41632Z" fill="black"/>
<path d="M38.072 10.6781L30.5012 27.4936H40.8274L38.072 10.6781ZM28.3896 32.1803L25.763 38H20.5613L36.9647 2H41.3424L47.5742 38H42.5785L41.5999 32.1803H28.3896Z" fill="black"/>
<path d="M68.4762 33.2103V38H53.4375V2H58.5362V33.2103H68.4762Z" fill="black"/>
<path d="M89.9629 10.6781L82.3921 27.4936H92.7183L89.9629 10.6781ZM80.2805 32.1803L77.6539 38H72.4521L88.8556 2H93.2333L99.4651 38H94.4694L93.4908 32.1803H80.2805Z" fill="black"/>
<path d="M116.118 18.867C121.371 18.867 123.328 16.1888 123.328 12.7897C123.328 9.39056 121.371 6.76395 116.118 6.76395H110.427V18.8412L116.118 18.867ZM113.543 23.6567H110.427V38H105.328V2H116.942C124.461 2 128.453 6.94421 128.453 12.7897C128.453 17.9914 125.311 22.4979 119.337 23.4249L131.723 37.9743H125.543L113.543 23.6567Z" fill="black"/>
</svg>
