<svg width="32" height="32" viewBox="0 0 32 32" fill="none" xmlns="http://www.w3.org/2000/svg">
<path fill-rule="evenodd" clip-rule="evenodd" d="M14.3681 3.10449C15.4667 1.25276 17.4579 0 19.75 0C23.2534 0 26.0441 2.91566 26.0441 6.45055C26.0441 9.15589 25.3955 11.6749 23.8084 14.2852C24.3353 14.5827 24.8625 14.871 25.3797 15.1538C26.8391 15.9519 28.2193 16.7067 29.2909 17.5026C30.8275 18.6438 32 20.0569 32 22.1209V24.2794C32 25.1447 31.2985 25.8462 30.4332 25.8462H27.0896C27.3537 26.4735 27.5 27.1615 27.5 27.9231V30.4332C27.5 31.2985 26.7985 32 25.9332 32H1.56678C0.701469 32 0 31.2985 0 30.4332V27.9231C0 25.6341 1.31032 24.0667 3.0534 22.7852C4.25284 21.9034 5.79177 21.0649 7.42894 20.1729C8.05405 19.8323 8.69349 19.4839 9.33382 19.1223C7.49795 16.156 6.75 13.3017 6.75 10.2308C6.75 6.30383 9.86029 3.07692 13.75 3.07692C13.9581 3.07692 14.1643 3.08623 14.3681 3.10449ZM16.4344 3.62183C18.9782 4.70145 20.75 7.26383 20.75 10.2308C20.75 13.3017 20.0021 16.156 18.1662 19.1223C18.8132 19.4876 19.4712 19.8464 20.112 20.1958C20.9783 20.6681 21.8129 21.1232 22.5457 21.5539C23.7412 22.2566 24.8434 22.9913 25.6996 23.8462H30V22.1209C30 20.9694 29.4037 20.0776 28.0985 19.1082C27.145 18.4001 25.9544 17.7491 24.5557 16.9842C23.9655 16.6615 23.3382 16.3185 22.6761 15.9424C21.7288 15.4043 21.5037 14.2106 22.0339 13.3532C23.4778 11.018 24.0441 8.82786 24.0441 6.45055C24.0441 3.96493 22.0943 2 19.75 2C18.4236 2 17.2265 2.62555 16.4344 3.62183ZM13.75 5.07692C11.0123 5.07692 8.75 7.36036 8.75 10.2308C8.75 12.9679 9.41263 15.4899 11.1041 18.1814C11.6452 19.0424 11.4144 20.241 10.4674 20.7787C9.68522 21.2229 8.94317 21.6271 8.24496 22.0074C6.67295 22.8636 5.32324 23.5988 4.23805 24.3966C2.72171 25.5114 2 26.557 2 27.9231V30H25.5V27.9231C25.5 26.9914 25.1683 26.2355 24.5231 25.5115C23.8483 24.7544 22.8447 24.0495 21.5323 23.2782C20.7973 22.8462 20.0327 22.43 19.2112 21.9828C18.5292 21.6116 17.808 21.2191 17.032 20.7784C16.0843 20.2402 15.8553 19.0416 16.3959 18.1814C18.0874 15.4899 18.75 12.9679 18.75 10.2308C18.75 7.71309 17.0046 5.64044 14.7286 5.1754C14.4129 5.1109 14.0858 5.07692 13.75 5.07692Z" fill="#050505"/>
</svg>
