<svg width="144" height="40" viewBox="0 0 144 40" fill="none" xmlns="http://www.w3.org/2000/svg">
<path d="M136.825 37L127.627 24.0388H110.432V37H104.801V3H131.615C138.754 3 143.07 7.13419 143.07 13.7086C143.07 19.7169 139.315 22.9141 134.241 23.7557L143.356 37H136.825ZM137.299 13.7086C137.299 9.94684 134.994 8.11817 130.258 8.11817H110.432V18.9176H130.766C134.994 18.9176 137.299 17.039 137.299 13.7086ZM85.391 37L69.0525 19.1084L58.8131 26.6683V37H53.1727V3H58.8131V20.6085L82.6237 3H90.7468L73.3699 15.8673L92.6285 37H85.391ZM32.6239 37L16.2839 19.1084L6.04912 26.6683V37H0.408691V3H6.04912V20.6085L29.8537 3H37.9798L20.6028 15.8673L39.8614 37H32.6239Z" fill="#050505"/>
</svg>
