<svg width="156" height="40" viewBox="0 0 156 40" fill="none" xmlns="http://www.w3.org/2000/svg">
<path d="M66.5921 15.177H38.2749V35.9741H66.5921V15.177Z" fill="black"/>
<path d="M52.6668 18.2887H53.7559L52.9002 18.9629L53.2373 20.0521L52.3556 19.3778L51.4999 20.0521L51.837 18.9629L50.9553 18.2887H52.0185L52.3556 17.2515L52.6668 18.2887Z" fill="white"/>
<path d="M52.7191 32.214H53.8082L52.9266 32.8623L53.2637 33.8996L52.4079 33.2513L51.5263 33.8996L51.8634 32.8623L50.9817 32.214H52.0708L52.4079 31.1768L52.7191 32.214Z" fill="white"/>
<path d="M56.1678 31.2804H57.257L56.3753 31.9287L56.7124 32.9659L55.8307 32.3436L54.975 32.9659L55.3121 31.9287L54.4304 31.2804H55.5195L55.8307 30.269L56.1678 31.2804Z" fill="white"/>
<path d="M56.1678 19.2223H57.257L56.3753 19.8706L56.7124 20.9078L55.8307 20.2855L54.975 20.9078L55.3121 19.8706L54.4304 19.2223H55.5195L55.8307 18.2109L56.1678 19.2223Z" fill="white"/>
<path d="M58.7088 21.7635H59.798L58.9163 22.4377L59.2534 23.475L58.3977 22.8267L57.516 23.475L57.8531 22.4377L56.9714 21.7635H58.0606L58.3977 20.7522L58.7088 21.7635Z" fill="white"/>
<path d="M58.7088 28.765H59.798L58.9163 29.4133L59.2534 30.4505L58.3977 29.8282L57.516 30.4505L57.8531 29.4133L56.9714 28.765H58.0606L58.3977 27.7537L58.7088 28.765Z" fill="white"/>
<path d="M59.6686 25.2125H60.7577L59.876 25.8608L60.2131 26.898L59.3574 26.2757L58.4757 26.898L58.8128 25.8608L57.9312 25.2125H59.0203L59.3574 24.2012L59.6686 25.2125Z" fill="white"/>
<path d="M49.1661 19.2223H50.2553L49.3736 19.8965L49.7107 20.9337L48.8549 20.2855L47.9733 20.9337L48.3104 19.8965L47.4287 19.2223H48.5178L48.8549 18.2109L49.1661 19.2223Z" fill="white"/>
<path d="M46.6771 21.7894H47.7662L46.9104 22.4377L47.2476 23.475L46.3659 22.8267L45.5101 23.475L45.8473 22.4377L44.9656 21.7894H46.0288L46.3659 20.7781L46.6771 21.7894Z" fill="white"/>
<path d="M45.7691 25.2125H46.8583L45.9766 25.8867L46.3137 26.924L45.458 26.2757L44.5763 26.924L44.9134 25.8867L44.0317 25.2125H45.1209L45.458 24.2012L45.7691 25.2125Z" fill="white"/>
<path d="M46.6771 28.765H47.7662L46.9104 29.4392L47.2476 30.4765L46.3659 29.8282L45.5101 30.4765L45.8473 29.4392L44.9656 28.765H46.0288L46.3659 27.7537L46.6771 28.765Z" fill="white"/>
<path d="M49.2184 31.2804H50.2816L49.4258 31.9546L49.7629 32.9919L48.8813 32.3436L48.0255 32.9919L48.3626 31.9546L47.481 31.2804H48.5701L48.8813 30.269L49.2184 31.2804Z" fill="white"/>
<path d="M66.5922 6.93076V10.5612C59.7462 8.40886 53.1856 7.31973 46.962 7.31973C36.8487 7.31973 27.6689 10.1981 19.6302 15.8512C12.888 20.5967 6.92372 27.3648 1.86707 36H0C10.7097 15.3066 27.5911 4.0005 48.0511 4.0005C54.0672 3.97457 60.2649 4.95997 66.5922 6.93076Z" fill="#9D9D9C"/>
<path d="M37.5231 17.1477V18.159H20.6157C20.7713 18.0553 20.901 17.9516 21.0566 17.8479C21.264 17.7182 21.4455 17.5626 21.653 17.433C21.8086 17.3292 21.9642 17.2514 22.1198 17.1736H37.5231V17.1477Z" fill="#9D9D9C"/>
<path d="M16.9591 21.1152H37.5228V22.1266H15.844L16.9591 21.1152Z" fill="#9D9D9C"/>
<path d="M12.8619 25.1086H37.5228V26.12H11.9543L12.8619 25.1086Z" fill="#9D9D9C"/>
<path d="M9.54284 29.0244H37.523V30.0357H8.76489L9.54284 29.0244Z" fill="#9D9D9C"/>
<path d="M37.5229 32.9661V33.9774H6.01611C6.22357 33.6403 6.45695 33.3032 6.69033 32.9661H37.5229Z" fill="#9D9D9C"/>
<path d="M77.032 22.409V23.309H74.746V25.091H77.302V26H73.639V19.934H77.167V20.843H74.746V22.409H77.032ZM82.1707 21.617V24.686C82.1707 25.208 82.1887 25.64 82.2067 26H81.2347L81.1807 25.334H81.1627C80.9737 25.649 80.5417 26.099 79.7587 26.099C78.9577 26.099 78.2287 25.622 78.2287 24.191V21.617H79.3357V24.002C79.3357 24.731 79.5697 25.199 80.1547 25.199C80.5957 25.199 80.8837 24.884 81.0007 24.605C81.0367 24.506 81.0637 24.389 81.0637 24.263V21.617H82.1707ZM83.4708 26V23.03C83.4708 22.436 83.4618 22.013 83.4348 21.617H84.3978L84.4338 22.454H84.4698C84.6858 21.833 85.1988 21.518 85.6668 21.518C85.7748 21.518 85.8378 21.527 85.9278 21.545V22.589C85.8378 22.571 85.7388 22.553 85.6038 22.553C85.0728 22.553 84.7128 22.895 84.6138 23.39C84.5958 23.489 84.5778 23.606 84.5778 23.732V26H83.4708ZM88.6887 21.518C89.9937 21.518 90.8667 22.436 90.8667 23.768C90.8667 25.379 89.7327 26.099 88.6167 26.099C87.3747 26.099 86.4207 25.244 86.4207 23.84C86.4207 22.4 87.3657 21.518 88.6887 21.518ZM88.6617 22.328C87.8787 22.328 87.5637 23.084 87.5637 23.813C87.5637 24.659 87.9777 25.298 88.6527 25.298C89.2827 25.298 89.7237 24.677 89.7237 23.795C89.7237 23.111 89.4177 22.328 88.6617 22.328ZM91.8797 27.782V23.075C91.8797 22.499 91.8617 22.031 91.8437 21.617H92.8157L92.8697 22.292H92.8877C93.2117 21.797 93.7247 21.518 94.3907 21.518C95.3987 21.518 96.2357 22.382 96.2357 23.75C96.2357 25.334 95.2367 26.099 94.2377 26.099C93.6887 26.099 93.2297 25.865 93.0047 25.514H92.9867V27.782H91.8797ZM92.9867 23.489V24.164C92.9867 24.272 92.9957 24.371 93.0227 24.47C93.1307 24.92 93.5267 25.244 93.9947 25.244C94.6967 25.244 95.1107 24.659 95.1107 23.795C95.1107 23.021 94.7327 22.391 94.0217 22.391C93.5627 22.391 93.1397 22.724 93.0317 23.21C93.0047 23.3 92.9867 23.399 92.9867 23.489ZM100.961 24.119H98.0274C98.0544 24.911 98.6754 25.253 99.3774 25.253C99.8904 25.253 100.259 25.181 100.592 25.055L100.754 25.82C100.376 25.973 99.8544 26.099 99.2244 26.099C97.8024 26.099 96.9654 25.217 96.9654 23.876C96.9654 22.661 97.7034 21.518 99.1074 21.518C100.538 21.518 100.997 22.688 100.997 23.651C100.997 23.858 100.979 24.02 100.961 24.119ZM98.0274 23.345H99.9534C99.9624 22.94 99.7824 22.274 99.0444 22.274C98.3604 22.274 98.0724 22.895 98.0274 23.345ZM105.387 23.363V24.947C105.387 25.343 105.405 25.73 105.45 26H104.451L104.379 25.514H104.352C104.082 25.856 103.623 26.099 103.056 26.099C102.174 26.099 101.679 25.46 101.679 24.794C101.679 23.687 102.66 23.129 104.28 23.138V23.066C104.28 22.778 104.163 22.301 103.389 22.301C102.957 22.301 102.507 22.436 102.21 22.625L101.994 21.905C102.318 21.707 102.885 21.518 103.578 21.518C104.982 21.518 105.387 22.409 105.387 23.363ZM104.307 24.461V23.858C103.524 23.84 102.777 24.011 102.777 24.677C102.777 25.109 103.056 25.307 103.407 25.307C103.848 25.307 104.172 25.019 104.271 24.704C104.298 24.623 104.307 24.533 104.307 24.461ZM106.655 26V22.922C106.655 22.418 106.646 21.995 106.619 21.617H107.591L107.645 22.274H107.672C107.861 21.932 108.338 21.518 109.067 21.518C109.832 21.518 110.624 22.013 110.624 23.399V26H109.517V23.525C109.517 22.895 109.283 22.418 108.68 22.418C108.239 22.418 107.933 22.733 107.816 23.066C107.78 23.165 107.771 23.3 107.771 23.426V26H106.655ZM73.639 28.934H74.746V35H73.639V28.934ZM76.1198 35V31.922C76.1198 31.418 76.1108 30.995 76.0838 30.617H77.0558L77.1098 31.274H77.1368C77.3258 30.932 77.8028 30.518 78.5318 30.518C79.2968 30.518 80.0888 31.013 80.0888 32.399V35H78.9818V32.525C78.9818 31.895 78.7478 31.418 78.1448 31.418C77.7038 31.418 77.3978 31.733 77.2808 32.066C77.2448 32.165 77.2358 32.3 77.2358 32.426V35H76.1198ZM80.7345 30.617H81.9315L82.6425 32.84C82.7685 33.227 82.8585 33.578 82.9395 33.938H82.9665C83.0475 33.578 83.1465 33.236 83.2635 32.84L83.9565 30.617H85.1265L83.4525 35H82.3635L80.7345 30.617ZM89.5026 33.119H86.5686C86.5956 33.911 87.2166 34.253 87.9186 34.253C88.4316 34.253 88.8006 34.181 89.1336 34.055L89.2956 34.82C88.9176 34.973 88.3956 35.099 87.7656 35.099C86.3436 35.099 85.5066 34.217 85.5066 32.876C85.5066 31.661 86.2446 30.518 87.6486 30.518C89.0796 30.518 89.5386 31.688 89.5386 32.651C89.5386 32.858 89.5206 33.02 89.5026 33.119ZM86.5686 32.345H88.4946C88.5036 31.94 88.3236 31.274 87.5856 31.274C86.9016 31.274 86.6136 31.895 86.5686 32.345ZM90.2562 34.784L90.4722 33.983C90.7242 34.136 91.2012 34.298 91.5972 34.298C92.0832 34.298 92.2992 34.1 92.2992 33.812C92.2992 33.515 92.1192 33.362 91.5792 33.173C90.7242 32.876 90.3642 32.408 90.3732 31.895C90.3732 31.121 91.0122 30.518 92.0292 30.518C92.5152 30.518 92.9382 30.644 93.1902 30.779L92.9742 31.562C92.7852 31.454 92.4342 31.31 92.0472 31.31C91.6512 31.31 91.4352 31.499 91.4352 31.769C91.4352 32.048 91.6422 32.183 92.2002 32.381C92.9922 32.669 93.3612 33.074 93.3702 33.722C93.3702 34.514 92.7492 35.099 91.5882 35.099C91.0572 35.099 90.5802 34.964 90.2562 34.784ZM94.5682 29.807L95.6482 29.492V30.617H96.7012V31.445H95.6482V33.38C95.6482 33.911 95.7922 34.19 96.2152 34.19C96.4222 34.19 96.5212 34.172 96.6472 34.136L96.6652 34.982C96.5032 35.045 96.2152 35.099 95.8642 35.099C95.4592 35.099 95.1172 34.955 94.9102 34.73C94.6762 34.478 94.5682 34.082 94.5682 33.506V31.445H93.9382V30.617H94.5682V29.807ZM97.6344 35V31.922C97.6344 31.418 97.6254 30.995 97.5984 30.617H98.5524L98.5974 31.265H98.6244C98.8404 30.923 99.2364 30.518 99.9744 30.518C100.55 30.518 101 30.842 101.189 31.328H101.207C101.36 31.085 101.54 30.905 101.747 30.779C101.99 30.608 102.269 30.518 102.629 30.518C103.358 30.518 104.096 31.013 104.096 32.417V35H103.016V32.579C103.016 31.85 102.764 31.418 102.233 31.418C101.855 31.418 101.576 31.688 101.459 32.003C101.432 32.111 101.405 32.246 101.405 32.372V35H100.325V32.462C100.325 31.85 100.082 31.418 99.5694 31.418C99.1554 31.418 98.8764 31.742 98.7774 32.048C98.7324 32.156 98.7144 32.282 98.7144 32.408V35H97.6344ZM109.08 33.119H106.146C106.173 33.911 106.794 34.253 107.496 34.253C108.009 34.253 108.378 34.181 108.711 34.055L108.873 34.82C108.495 34.973 107.973 35.099 107.343 35.099C105.921 35.099 105.084 34.217 105.084 32.876C105.084 31.661 105.822 30.518 107.226 30.518C108.657 30.518 109.116 31.688 109.116 32.651C109.116 32.858 109.098 33.02 109.08 33.119ZM106.146 32.345H108.072C108.081 31.94 107.901 31.274 107.163 31.274C106.479 31.274 106.191 31.895 106.146 32.345ZM110.104 35V31.922C110.104 31.418 110.095 30.995 110.068 30.617H111.04L111.094 31.274H111.121C111.31 30.932 111.787 30.518 112.516 30.518C113.281 30.518 114.073 31.013 114.073 32.399V35H112.966V32.525C112.966 31.895 112.732 31.418 112.129 31.418C111.688 31.418 111.382 31.733 111.265 32.066C111.229 32.165 111.22 32.3 111.22 32.426V35H110.104ZM115.499 29.807L116.579 29.492V30.617H117.632V31.445H116.579V33.38C116.579 33.911 116.723 34.19 117.146 34.19C117.353 34.19 117.452 34.172 117.578 34.136L117.596 34.982C117.434 35.045 117.146 35.099 116.795 35.099C116.39 35.099 116.048 34.955 115.841 34.73C115.607 34.478 115.499 34.082 115.499 33.506V31.445H114.869V30.617H115.499V29.807ZM120.574 35V28.934H124.075V29.843H121.681V31.517H123.913V32.426H121.681V35H120.574ZM128.851 30.617V33.686C128.851 34.208 128.869 34.64 128.887 35H127.915L127.861 34.334H127.843C127.654 34.649 127.222 35.099 126.439 35.099C125.638 35.099 124.909 34.622 124.909 33.191V30.617H126.016V33.002C126.016 33.731 126.25 34.199 126.835 34.199C127.276 34.199 127.564 33.884 127.681 33.605C127.717 33.506 127.744 33.389 127.744 33.263V30.617H128.851ZM130.151 35V31.922C130.151 31.418 130.142 30.995 130.115 30.617H131.087L131.141 31.274H131.168C131.357 30.932 131.834 30.518 132.563 30.518C133.328 30.518 134.12 31.013 134.12 32.399V35H133.013V32.525C133.013 31.895 132.779 31.418 132.176 31.418C131.735 31.418 131.429 31.733 131.312 32.066C131.276 32.165 131.267 32.3 131.267 32.426V35H130.151ZM138.335 28.61H139.442V33.767C139.442 34.217 139.46 34.703 139.478 35H138.488L138.443 34.307H138.425C138.164 34.793 137.633 35.099 136.994 35.099C135.95 35.099 135.122 34.208 135.122 32.858C135.113 31.391 136.031 30.518 137.084 30.518C137.687 30.518 138.119 30.77 138.317 31.094H138.335V28.61ZM138.335 33.101V32.444C138.335 32.354 138.326 32.246 138.308 32.156C138.209 31.724 137.858 31.373 137.354 31.373C136.643 31.373 136.247 32.003 136.247 32.822C136.247 33.623 136.643 34.208 137.345 34.208C137.795 34.208 138.191 33.902 138.299 33.425C138.326 33.326 138.335 33.218 138.335 33.101Z" fill="black"/>
</svg>
